<svg xmlns="http://www.w3.org/2000/svg" xmlns:xlink="http://www.w3.org/1999/xlink" xmlns:lucid="lucid" width="3442" height="962"><g transform="translate(1121 81)" lucid:page-tab-id="QSIJBMCcx_hD"><path d="M-1500-500h4000v1500h-4000z" fill="#fff"/><path d="M-1080 880h-32a8 8 0 0 1-8-8V-72a8 8 0 0 1 8-8h32z" stroke="#000" stroke-width="2" fill="#fff"/><path d="M-1080-80h3392a8 8 0 0 1 8 8v312h-3400zM-1080 240h3400v320h-3400zM2320 560v312a8 8 0 0 1-8 8h-3392V560z" stroke="#000" stroke-width="2" fill="none"/><use xlink:href="#a" transform="matrix(-1.8369701987210297e-16,-1,1,-1.8369701987210297e-16,-1120,880.0000000000001) translate(461.32763671875 26.5478515625)"/><use xlink:href="#b" transform="matrix(-1.8369701987210297e-16,-1,1,-1.8369701987210297e-16,-1080,240) translate(139.9169921875 27.0478515625)"/><use xlink:href="#c" transform="matrix(-1.8369701987210297e-16,-1,1,-1.8369701987210297e-16,-1080,560.0000000000001) translate(122.06640625 26.5478515625)"/><use xlink:href="#d" transform="matrix(-1.8369701987210297e-16,-1,1,-1.8369701987210297e-16,-1080,879.9999999999999) translate(123.103515625 26.5478515625)"/><path d="M840 588a8 8 0 0 1 8-8h424a8 8 0 0 1 8 8v204a8 8 0 0 1-8 8H848a8 8 0 0 1-8-8z" fill-opacity="0"/><path d="M868.2 580h2m10.1 0h20.2m10.1 0h2m10.1 0h20.2m10.1 0h2m10.1 0h20.2m10.1 0h2m10.1 0h20.2m10.1 0h2m10.1 0h20.2m10.1 0h2m10.1 0h20.2m10.1 0h2m10.1 0h20.2m10.1 0h2m10.1 0h20.2m10.1 0h2m10.1 0h20.2m10.1 0h2m10.1 0h10.1l1.25.1 1.22.3 1.16.47 1.07.66.96.8.8.97.67 1.07.48 1.16.3 1.22.1 1.25v9.7m0 9.73v1.94m0 9.72v19.4m0 9.73v1.94m0 9.72v19.4m0 9.73v1.94m0 9.72v19.4m0 9.73v1.94m0 9.72v19.4m0 9.73v1.94m0 9.72v9.7l-.1 1.25-.3 1.22-.47 1.16-.66 1.07-.8.96-.97.8-1.07.67-1.16.48-1.22.3-1.25.1h-10.1m-10.1 0h-2m-10.1 0h-20.2m-10.1 0h-2m-10.1 0h-20.2m-10.1 0h-2m-10.1 0h-20.2m-10.1 0h-2m-10.1 0h-20.2m-10.1 0h-2m-10.1 0h-20.2m-10.1 0h-2m-10.1 0h-20.2m-10.1 0h-2m-10.1 0h-20.2m-10.1 0h-2m-10.1 0h-20.2m-10.1 0h-2m-10.1 0h-20.2m-10.1 0h-2m-10.1 0H848l-1.25-.1-1.22-.3-1.16-.47-1.07-.66-.96-.8-.8-.97-.67-1.07-.48-1.16-.3-1.22-.1-1.25v-9.7m0-9.73v-1.94m0-9.72v-19.4m0-9.73v-1.94m0-9.72v-19.4m0-9.73v-1.94m0-9.72v-19.4m0-9.73v-1.94m0-9.72v-19.4m0-9.73v-1.94m0-9.72V588l.1-1.25.3-1.22.47-1.16.66-1.07.8-.96.97-.8 1.07-.67 1.16-.48 1.22-.3 1.25-.1h10.1" stroke="#000" stroke-width="2" fill="none"/><use xlink:href="#e" transform="matrix(1,0,0,1,860,600) translate(126.224609375 17.4375)"/><use xlink:href="#f" transform="matrix(1,0,0,1,860,600) translate(199.8330078125 17.4375)"/><path d="M-900 62.5c0 23.47-17.9 42.5-40 42.5s-40-19.03-40-42.5S-962.1 20-940 20s40 19.03 40 42.5z" stroke="#000" stroke-width="2" fill="#fff"/><use xlink:href="#g" transform="matrix(1,0,0,1,-980,107) translate(1.44677734375 17.4375)"/><use xlink:href="#h" transform="matrix(1,0,0,1,-980,107) translate(48.18701171875 17.4375)"/><path d="M-1020 348a8 8 0 0 1 8-8h144a8 8 0 0 1 8 8v104a8 8 0 0 1-8 8h-144a8 8 0 0 1-8-8z" stroke="#000" stroke-width="2" fill="#fff"/><use xlink:href="#i" transform="matrix(1,0,0,1,-1020,340) translate(10.189082031250004 54.9375)"/><use xlink:href="#j" transform="matrix(1,0,0,1,-1020,340) translate(47.22619140625 54.9375)"/><use xlink:href="#k" transform="matrix(1,0,0,1,-1020,340) translate(79.71056640625 54.9375)"/><use xlink:href="#l" transform="matrix(1,0,0,1,-1020,340) translate(103.59923828125 54.9375)"/><use xlink:href="#m" transform="matrix(1,0,0,1,-1020,340) translate(139.02794921875 54.9375)"/><use xlink:href="#n" transform="matrix(1,0,0,1,-1020,340) translate(58.5860546875 81.07265625)"/><path d="M-940 106.5v216.12" stroke="#000" fill="none"/><path d="M-940.02 106h.5v.5h-.96v-.53z" stroke="#000" stroke-width=".05"/><path d="M-940 337.38l-4.63-14.26h9.26z" stroke="#000"/><path d="M340 308a8 8 0 0 1 8-8h144a8 8 0 0 1 8 8v104a8 8 0 0 1-8 8H348a8 8 0 0 1-8-8z" stroke="#000" stroke-width="2" fill="#fff"/><use xlink:href="#o" transform="matrix(1,0,0,1,340,300) translate(22.366328124999995 66.1875)"/><use xlink:href="#p" transform="matrix(1,0,0,1,340,300) translate(95.0958203125 66.1875)"/><path d="M501.5 360h80.7" stroke="#000" fill="none"/><path d="M501.5 360.48h-.5v-.96h.5z" stroke="#000" stroke-width=".05"/><path d="M596.97 360l-14.27 4.63v-9.26z" stroke="#000"/><path d="M600 360l37.5-37.5L675 360l-37.5 37.5zM1350 678a8 8 0 0 1 8-8h144a8 8 0 0 1 8 8v44a8 8 0 0 1-8 8h-144a8 8 0 0 1-8-8z" stroke="#000" stroke-width="2" fill="#fff"/><use xlink:href="#q" transform="matrix(1,0,0,1,1350,670) translate(15.669062500000004 36.1875)"/><use xlink:href="#r" transform="matrix(1,0,0,1,1350,670) translate(77.34191406250001 36.1875)"/><use xlink:href="#s" transform="matrix(1,0,0,1,1350,670) translate(117.93859375000001 36.1875)"/><path d="M520 270.5a8 8 0 0 1 8-8h224a8 8 0 0 1 8 8v44a8 8 0 0 1-8 8H528a8 8 0 0 1-8-8z" fill="none"/><use xlink:href="#t" transform="matrix(1,0,0,1,520.0000000000002,262.5) translate(61.95703125 36.5478515625)"/><use xlink:href="#u" transform="matrix(1,0,0,1,520.0000000000002,262.5) translate(81.3544921875 36.5478515625)"/><use xlink:href="#v" transform="matrix(1,0,0,1,520.0000000000002,262.5) translate(128.96484375 36.5478515625)"/><path d="M80 8a8 8 0 0 1 8-8h144a8 8 0 0 1 8 8v104a8 8 0 0 1-8 8H88a8 8 0 0 1-8-8z" stroke="#000" stroke-width="2" fill="#fff"/><use xlink:href="#w" transform="matrix(1,0,0,1,80,0) translate(13.709101562500004 66.1875)"/><use xlink:href="#x" transform="matrix(1,0,0,1,80,0) translate(70.301875 66.1875)"/><path d="M241.5 60H278a12 12 0 0 1 12 12v276a12 12 0 0 0 12 12h20.62" stroke="#000" fill="none"/><path d="M241.5 60.48h-.5v-.95h.5z" stroke="#000" stroke-width=".05"/><path d="M337.38 360l-14.26 4.63v-9.26z" stroke="#000"/><path d="M700.48 622.62h-.96V428.57h.96zm-10.53-262.94l1.9.45 1.8.75 1.68 1.03 1.5 1.28 1.26 1.5 1.02 1.66.75 1.8.45 1.9.15 1.94v34.8h-.95v-34.76l-.14-1.82-.42-1.76-.7-1.67-.94-1.54-1.17-1.38-1.38-1.17-1.54-.95-1.67-.7-1.76-.4-1.82-.15H676.9v-.96h11.12z" stroke="#000" stroke-width=".05"/><path d="M676.93 360.48h-1l.48-.48-.46-.48h1z"/><path stroke="#000" stroke-width=".05"/><path d="M700 637.38l-4.63-14.26h9.26z"/><path d="M700 638.92l-5.3-16.28h10.6zm-3.98-15.33l3.98 12.25 3.98-12.26z" stroke="#000" stroke-width=".05"/><use xlink:href="#y" transform="matrix(1,0,0,1,684.5839843749998,406.7899958471891) translate(0.005000000000000782 17.4375)"/><path d="M620 648a8 8 0 0 1 8-8h144a8 8 0 0 1 8 8v104a8 8 0 0 1-8 8H628a8 8 0 0 1-8-8z" stroke="#000" stroke-width="2" fill="#fff"/><use xlink:href="#o" transform="matrix(1,0,0,1,619.9999999999998,640) translate(30.439082031249995 66.1875)"/><use xlink:href="#s" transform="matrix(1,0,0,1,619.9999999999998,640) translate(103.16857421875 66.1875)"/><path d="M-940 461.5v221.12" stroke="#000" fill="none"/><path d="M-939.52 461.5h-.96v-.5h.96z" stroke="#000" stroke-width=".05"/><path d="M-940 697.38l-4.63-14.26h9.26z" stroke="#000"/><path d="M-1020 708a8 8 0 0 1 8-8h144a8 8 0 0 1 8 8v104a8 8 0 0 1-8 8h-144a8 8 0 0 1-8-8z" stroke="#000" stroke-width="2" fill="#fff"/><use xlink:href="#z" transform="matrix(1,0,0,1,-1020,700) translate(35.44005859375 66.1875)"/><use xlink:href="#k" transform="matrix(1,0,0,1,-1020,700) translate(70.31505859375 66.1875)"/><use xlink:href="#h" transform="matrix(1,0,0,1,-1020,700) translate(94.20373046875 66.1875)"/><path d="M-858.5 760H-752a12 12 0 0 0 12-12V474.88" stroke="#000" fill="none"/><path d="M-858.5 760.48h-.5v-.96h.5z" stroke="#000" stroke-width=".05"/><path d="M-740 460.12l4.63 14.26h-9.26z" stroke="#000"/><path d="M-820 345.5a8 8 0 0 1 8-8h144a8 8 0 0 1 8 8v104a8 8 0 0 1-8 8h-144a8 8 0 0 1-8-8z" stroke="#000" stroke-width="2" fill="#fff"/><use xlink:href="#A" transform="matrix(1,0,0,1,-820,337.5) translate(7.244746093750004 66.1875)"/><use xlink:href="#l" transform="matrix(1,0,0,1,-820,337.5) translate(74.49865234375001 66.1875)"/><use xlink:href="#n" transform="matrix(1,0,0,1,-820,337.5) translate(109.92736328125001 66.1875)"/><path d="M-680 77.5l37.5-37.5 37.5 37.5-37.5 37.5z" stroke="#000" stroke-width="2" fill="#fff"/><path d="M-740 336V89.5a12 12 0 0 1 12-12h30.2" stroke="#000" fill="none"/><path d="M-739.52 336.5h-.96v-.5h.96z" stroke="#000" stroke-width=".05"/><path d="M-683.03 77.5l-14.27 4.64v-9.28z" stroke="#000"/><path d="M-642.5 116.9v28.6a12 12 0 0 0 12 12h53.12" stroke="#000" fill="none"/><path d="M-642.02 116.93h-.96v-1l.48.48.48-.46z" stroke="#000" stroke-width=".05"/><path d="M-562.62 157.5l-14.26 4.63v-9.26z" stroke="#000"/><path d="M-560 105.5a8 8 0 0 1 8-8h144a8 8 0 0 1 8 8v104a8 8 0 0 1-8 8h-144a8 8 0 0 1-8-8z" stroke="#000" stroke-width="2" fill="#fff"/><use xlink:href="#B" transform="matrix(1,0,0,1,-560,97.5) translate(24.818476562500003 54.9375)"/><use xlink:href="#C" transform="matrix(1,0,0,1,-560,97.5) translate(71.9102734375 54.9375)"/><use xlink:href="#D" transform="matrix(1,0,0,1,-560,97.5) translate(98.4005078125 54.9375)"/><use xlink:href="#n" transform="matrix(1,0,0,1,-560,97.5) translate(58.5860546875 81.07265625)"/><path d="M-480 219v630a12 12 0 0 1-12 12h-436a12 12 0 0 1-12-12v-11.62" stroke="#000" fill="none"/><path d="M-479.52 219h-.96v-.5h.96z" stroke="#000" stroke-width=".05"/><path d="M-940 822.62l4.63 14.26h-9.26z" stroke="#000"/><path d="M-642.5 38.1V12a12 12 0 0 1 12-12h53.12" stroke="#000" fill="none"/><path d="M-642.02 39.06l-.48-.47-.48.46v-1h.96z" stroke="#000" stroke-width=".05"/><path d="M-562.62 0l-14.26 4.63v-9.27z" stroke="#000"/><path d="M-560-52a8 8 0 0 1 8-8h144a8 8 0 0 1 8 8V52a8 8 0 0 1-8 8h-144a8 8 0 0 1-8-8z" stroke="#000" stroke-width="2" fill="#fff"/><use xlink:href="#B" transform="matrix(1,0,0,1,-560,-60) translate(32.6934765625 54.9375)"/><use xlink:href="#C" transform="matrix(1,0,0,1,-560,-60) translate(79.7852734375 54.9375)"/><use xlink:href="#E" transform="matrix(1,0,0,1,-560,-60) translate(106.2755078125 54.9375)"/><use xlink:href="#F" transform="matrix(1,0,0,1,-560,-60) translate(52.09533203125 81.07265625)"/><path d="M-398.5 0H-292a12 12 0 0 1 12 12v250.62" stroke="#000" fill="none"/><path d="M-398.5.47h-.5v-.94h.5z" stroke="#000" stroke-width=".05"/><path d="M-280 277.38l-4.63-14.26h9.26z" stroke="#000"/><path d="M-360 288a8 8 0 0 1 8-8h144a8 8 0 0 1 8 8v104a8 8 0 0 1-8 8h-144a8 8 0 0 1-8-8z" stroke="#000" stroke-width="2" fill="#fff"/><use xlink:href="#i" transform="matrix(1,0,0,1,-360,280) translate(20.525019531250003 66.1875)"/><use xlink:href="#G" transform="matrix(1,0,0,1,-360,280) translate(57.56212890625 66.1875)"/><use xlink:href="#F" transform="matrix(1,0,0,1,-360,280) translate(83.66564453125 66.1875)"/><path d="M-280 401.5v221.12" stroke="#000" fill="none"/><path d="M-279.52 401.5h-.96v-.5h.96z" stroke="#000" stroke-width=".05"/><path d="M-280 637.38l-4.63-14.26h9.26z" stroke="#000"/><path d="M-360 648a8 8 0 0 1 8-8h144a8 8 0 0 1 8 8v104a8 8 0 0 1-8 8h-144a8 8 0 0 1-8-8z" stroke="#000" stroke-width="2" fill="#fff"/><use xlink:href="#z" transform="matrix(1,0,0,1,-360,640) translate(28.900996093750003 66.1875)"/><use xlink:href="#G" transform="matrix(1,0,0,1,-360,640) translate(63.77599609375 66.1875)"/><use xlink:href="#H" transform="matrix(1,0,0,1,-360,640) translate(89.87951171875 66.1875)"/><use xlink:href="#I" transform="matrix(1,0,0,1,-360,640) translate(115.72814453125 66.1875)"/><path d="M-198.5 700H-92a12 12 0 0 0 12-12V417.38" stroke="#000" fill="none"/><path d="M-198.5 700.48h-.5v-.96h.5z" stroke="#000" stroke-width=".05"/><path d="M-80 402.62l4.64 14.26h-9.28z" stroke="#000"/><path d="M-160 288a8 8 0 0 1 8-8H-8a8 8 0 0 1 8 8v104a8 8 0 0 1-8 8h-144a8 8 0 0 1-8-8z" stroke="#000" stroke-width="2" fill="#fff"/><use xlink:href="#A" transform="matrix(1,0,0,1,-160,280) translate(5.416621093750004 66.1875)"/><use xlink:href="#G" transform="matrix(1,0,0,1,-160,280) translate(72.67052734375001 66.1875)"/><use xlink:href="#F" transform="matrix(1,0,0,1,-160,280) translate(98.77404296875001 66.1875)"/><path d="M-80 278.5V137.38" stroke="#000" fill="none"/><path d="M-79.53 279h-.94v-.5h.94z" stroke="#000" stroke-width=".05"/><path d="M-80 122.62l4.64 14.26h-9.28z" stroke="#000"/><path d="M-160 8a8 8 0 0 1 8-8H-8a8 8 0 0 1 8 8v104a8 8 0 0 1-8 8h-144a8 8 0 0 1-8-8z" stroke="#000" stroke-width="2" fill="#fff"/><use xlink:href="#J" transform="matrix(1,0,0,1,-160,0) translate(31.274042968749995 54.9375)"/><use xlink:href="#K" transform="matrix(1,0,0,1,-160,0) translate(101.70958984375 54.9375)"/><use xlink:href="#L" transform="matrix(1,0,0,1,-160,0) translate(24.137324218749995 76.716796875)"/><use xlink:href="#M" transform="matrix(1,0,0,1,-160,0) translate(92.65685546875 76.716796875)"/><path d="M1.5 60h61.12" stroke="#000" fill="none"/><path d="M1.5 60.48H1v-.95h.5z" stroke="#000" stroke-width=".05"/><path d="M77.38 60l-14.26 4.64v-9.27z" stroke="#000"/><path d="M487.62 480.48H297.38v-.96h190.24zm150.36-12.46l-.16 1.93-.45 1.9-.75 1.8-1.03 1.68-1.28 1.5-1.5 1.26-1.66 1.02-1.8.75-1.9.45-1.94.16H511.97v-.96h113.5l1.83-.14 1.76-.42 1.67-.7 1.54-.94 1.38-1.17 1.17-1.38.95-1.54.7-1.67.4-1.76.15-1.82V399.4h.96z" stroke="#000" stroke-width=".05"/><path d="M637.98 399.43H637v-1l.48.48.48-.46z"/><path stroke="#000" stroke-width=".05"/><path d="M296.88 484.63L282.62 480l14.26-4.63z"/><path d="M297.36 485.3l-16.28-5.3 16.28-5.3zm-13.2-5.3l12.25 3.98v-7.96z" stroke="#000" stroke-width=".05"/><use xlink:href="#N" transform="matrix(1,0,0,1,487.61562212506357,469.1103515625) translate(0.005000000000000782 17.4375)"/><path d="M120 428a8 8 0 0 1 8-8h144a8 8 0 0 1 8 8v104a8 8 0 0 1-8 8H128a8 8 0 0 1-8-8z" stroke="#000" stroke-width="2" fill="#fff"/><use xlink:href="#A" transform="matrix(1,0,0,1,120,420) translate(5.548457031250004 54.9375)"/><use xlink:href="#O" transform="matrix(1,0,0,1,120,420) translate(72.80236328125001 54.9375)"/><use xlink:href="#P" transform="matrix(1,0,0,1,120,420) translate(54.4551953125 81.07265625)"/><path d="M118.5 480H72a12 12 0 0 1-12-12V352a12 12 0 0 0-12-12H17.38" stroke="#000" fill="none"/><path d="M119 480.48h-.5v-.96h.5z" stroke="#000" stroke-width=".05"/><path d="M2.62 340l14.26-4.63v9.26z" stroke="#000"/><path d="M781.5 700h61.12" stroke="#000" fill="none"/><path d="M781.5 700.48h-.5v-.96h.5z" stroke="#000" stroke-width=".05"/><path d="M857.38 700l-14.26 4.63v-9.26z" stroke="#000"/><path d="M860 648a8 8 0 0 1 8-8h144a8 8 0 0 1 8 8v104a8 8 0 0 1-8 8H868a8 8 0 0 1-8-8z" stroke="#000" stroke-width="2" fill="#fff"/><use xlink:href="#Q" transform="matrix(1,0,0,1,860,640) translate(6.669062500000004 66.1875)"/><use xlink:href="#f" transform="matrix(1,0,0,1,860,640) translate(79.39855468750001 66.1875)"/><path d="M1100 648a8 8 0 0 1 8-8h144a8 8 0 0 1 8 8v104a8 8 0 0 1-8 8h-144a8 8 0 0 1-8-8z" stroke="#000" stroke-width="2" fill="#fff"/><use xlink:href="#R" transform="matrix(1,0,0,1,1100,640) translate(16.438105468750003 66.1875)"/><use xlink:href="#f" transform="matrix(1,0,0,1,1100,640) translate(69.62951171875 66.1875)"/><path d="M1021.5 700h61.12" stroke="#000" fill="none"/><path d="M1021.5 700.48h-.5v-.96h.5z" stroke="#000" stroke-width=".05"/><path d="M1097.38 700l-14.26 4.63v-9.26z" stroke="#000"/><path d="M1680 627a8 8 0 0 1 8-8h144a8 8 0 0 1 8 8v44a8 8 0 0 1-8 8h-144a8 8 0 0 1-8-8z" stroke="#000" stroke-width="2" fill="#fff"/><use xlink:href="#S" transform="matrix(1,0,0,1,1680,619.0000499999998) translate(16.833613281250003 24.9375)"/><use xlink:href="#T" transform="matrix(1,0,0,1,1680,619.0000499999998) translate(80.60705078125001 24.9375)"/><use xlink:href="#U" transform="matrix(1,0,0,1,1680,619.0000499999998) translate(66.80382812500001 46.716796875)"/><path d="M2120 618a8 8 0 0 1 8-8h144a8 8 0 0 1 8 8v104a8 8 0 0 1-8 8h-144a8 8 0 0 1-8-8z" stroke="#000" stroke-width="2" fill="#fff"/><use xlink:href="#V" transform="matrix(1,0,0,1,2120,610) translate(6.317500000000004 54.9375)"/><use xlink:href="#W" transform="matrix(1,0,0,1,2120,610) translate(62.760859375 54.9375)"/><use xlink:href="#X" transform="matrix(1,0,0,1,2120,610) translate(105.2383984375 54.9375)"/><use xlink:href="#Y" transform="matrix(1,0,0,1,2120,610) translate(44.901484374999995 76.716796875)"/><path d="M2200 608.5V464.88" stroke="#000" fill="none"/><path d="M2200.47 609h-.94v-.5h.94z" stroke="#000" stroke-width=".05"/><path d="M2200 450.12l4.64 14.26h-9.28z" stroke="#000"/><path d="M2120 355.5a8 8 0 0 1 8-8h144a8 8 0 0 1 8 8v84a8 8 0 0 1-8 8h-144a8 8 0 0 1-8-8z" stroke="#000" stroke-width="2" fill="#fff"/><g><use xlink:href="#Z" transform="matrix(1,0,0,1,2120,347.5) translate(16.025019531250003 45.5625)"/><use xlink:href="#aa" transform="matrix(1,0,0,1,2120,347.5) translate(73.77794921875 45.5625)"/><use xlink:href="#ab" transform="matrix(1,0,0,1,2120,347.5) translate(32.535273437499995 67.341796875)"/></g><path d="M1580 741.5l37.5-37.5 37.5 37.5-37.5 37.5z" stroke="#000" stroke-width="2" fill="#fff"/><g><use xlink:href="#ac" transform="matrix(1,0,0,1,1580,779.0000499999998) translate(13.716796875 17.4375)"/><use xlink:href="#ad" transform="matrix(1,0,0,1,1580,779.0000499999998) translate(24.298828125 43.572656249999994)"/><use xlink:href="#ae" transform="matrix(1,0,0,1,1580,779.0000499999998) translate(8.40380859375 69.70781249999999)"/></g><path d="M1617.97 702.1h-.94v-26.52h.94zm44.65-52.63h-33.1l-1.82.15-1.76.42-1.67.7-1.54.94-1.38 1.17-.8.94h-1.22l.08-.13 1.28-1.5 1.5-1.26 1.66-1.02 1.8-.75 1.9-.45 1.94-.15h33.14z" stroke="#000" stroke-width=".05"/><path d="M1617.97 703.06l-.47-.47-.47.46v-1h.94z"/><path stroke="#000" stroke-width=".05"/><path d="M1677.38 649l-14.26 4.63v-9.26z"/><path d="M1678.92 649l-16.28 5.3v-10.6zm-15.33 3.98l12.25-3.98-12.26-3.98z" stroke="#000" stroke-width=".05"/><g><use xlink:href="#af" transform="matrix(1,0,0,1,1602.083984375,653.7952842648563) translate(0.005000000000000782 17.4375)"/></g><path d="M1841.5 649h41.12" stroke="#000" fill="none"/><path d="M1841.5 649.48h-.5v-.96h.5z" stroke="#000" stroke-width=".05"/><path d="M1897.38 649l-14.26 4.63v-9.26z" stroke="#000"/><path d="M1900 627a8 8 0 0 1 8-8h144a8 8 0 0 1 8 8v44a8 8 0 0 1-8 8h-144a8 8 0 0 1-8-8z" stroke="#000" stroke-width="2" fill="#fff"/><g><use xlink:href="#V" transform="matrix(1,0,0,1,1900,619.0000499999998) translate(15.255976562500004 24.9375)"/><use xlink:href="#ag" transform="matrix(1,0,0,1,1900,619.0000499999998) translate(71.6993359375 24.9375)"/><use xlink:href="#ah" transform="matrix(1,0,0,1,1900,619.0000499999998) translate(52.65783203125 46.716796875)"/></g><path d="M1980 617.5V464.88" stroke="#000" fill="none"/><path d="M1980.47 618h-.94v-.5h.94z" stroke="#000" stroke-width=".05"/><path d="M1980 450.12l4.63 14.26h-9.27z" stroke="#000"/><path d="M1900 355.5a8 8 0 0 1 8-8h144a8 8 0 0 1 8 8v84a8 8 0 0 1-8 8h-144a8 8 0 0 1-8-8z" stroke="#000" stroke-width="2" fill="#fff"/><g><use xlink:href="#ai" transform="matrix(1,0,0,1,1900,347.5) translate(48.909296874999995 36.1875)"/><use xlink:href="#aj" transform="matrix(1,0,0,1,1900,347.5) translate(18.151972656250003 57.966796875)"/><use xlink:href="#ak" transform="matrix(1,0,0,1,1900,347.5) translate(118.15392578125001 57.966796875)"/><use xlink:href="#al" transform="matrix(1,0,0,1,1900,347.5) translate(13.599238281250004 79.74609375)"/><use xlink:href="#ah" transform="matrix(1,0,0,1,1900,347.5) translate(91.71642578125001 79.74609375)"/></g><path d="M1980 346V136.38" stroke="#000" fill="none"/><path d="M1980.47 346.5h-.94v-.5h.94z" stroke="#000" stroke-width=".05"/><path d="M1980 121.62l4.63 14.26h-9.27z" stroke="#000"/><path d="M2010 90c0 16.57-13.43 30-30 30s-30-13.43-30-30 13.43-30 30-30 30 13.43 30 30z" stroke="#000" stroke-width="6" fill="#fff"/><g><use xlink:href="#am" transform="matrix(1,0,0,1,1950,122) translate(16.4208984375 17.4375)"/><use xlink:href="#an" transform="matrix(1,0,0,1,1950,122) translate(-10.5263671875 43.572656249999994)"/></g><path d="M2200 346V131.38" stroke="#000" fill="none"/><path d="M2200.47 346.5h-.94v-.5h.94z" stroke="#000" stroke-width=".05"/><path d="M2200 116.62l4.64 14.26h-9.28z" stroke="#000"/><path d="M2230 85c0 16.57-13.43 30-30 30s-30-13.43-30-30 13.43-30 30-30 30 13.43 30 30z" stroke="#000" stroke-width="6" fill="#fff"/><g><use xlink:href="#am" transform="matrix(1,0,0,1,2170,117) translate(16.4208984375 17.4375)"/><use xlink:href="#ao" transform="matrix(1,0,0,1,2170,117) translate(-2.38330078125 43.572656249999994)"/></g><path d="M1261.5 700h71.12" stroke="#000" fill="none"/><path d="M1261.5 700.48h-.5v-.96h.5z" stroke="#000" stroke-width=".05"/><path d="M1347.38 700l-14.26 4.63v-9.26z" stroke="#000"/><path d="M1511.5 700h21.3a12 12 0 0 1 12 12v17.5a12 12 0 0 0 12 12h5.4" stroke="#000" fill="none"/><path d="M1511.5 700.48h-.5v-.96h.5z" stroke="#000" stroke-width=".05"/><path d="M1576.97 741.5l-14.27 4.63v-9.26z" stroke="#000"/><path d="M1686.37 741.18l1.9.45 1.8.75 1.68 1.03 1.5 1.28 1.26 1.5 1.03 1.66.75 1.8.46 1.9.15 1.94v24.5l.13 1.82.42 1.76.7 1.67.94 1.54 1.17 1.38 1.37 1.17 1.54.95 1.67.7 1.76.4 1.83.15h117.86v.96h-117.9l-1.94-.16-1.9-.45-1.8-.75-1.68-1.03-1.5-1.28-1.26-1.5-1.02-1.66-.75-1.8-.46-1.9-.16-1.94v-24.5l-.14-1.82-.43-1.76-.7-1.67-.93-1.54-1.18-1.38-1.37-1.17-1.55-.95-1.68-.7-1.75-.4-1.82-.15h-27.5V741h27.53zm514.1 36.84l-.15 1.93-.45 1.9-.75 1.8-1.03 1.68-1.28 1.5-1.5 1.26-1.66 1.02-1.8.75-1.9.45-1.94.15h-337.38v-.95H2188l1.82-.14 1.76-.42 1.67-.7 1.54-.94 1.38-1.17 1.17-1.38.95-1.54.7-1.67.4-1.76.16-1.82v-30.6h.94z" stroke="#000" stroke-width=".05"/><path d="M1656.93 741.98h-1l.48-.48-.46-.48h1z"/><path stroke="#000" stroke-width=".05"/><path d="M2204.64 746.88h-9.28l4.64-14.26z"/><path d="M2205.3 747.36h-10.6l5.3-16.28zm-9.28-.95h7.96l-3.98-12.25z" stroke="#000" stroke-width=".05"/><g><use xlink:href="#ap" transform="matrix(1,0,0,1,1826.2902313520663,779.1103515625) translate(0.005000000000000782 17.4375)"/></g><defs><path fill="#282c33" d="M180 0v-1490h510c348 0 508 209 508 474 0 266-160 477-507 477H370V0H180zm190-706h312c236 0 327-133 327-310 0-176-91-307-329-307H370v617" id="aq"/><path fill="#282c33" d="M613 24c-304 0-509-231-509-576 0-350 205-580 509-580 305 0 511 230 511 580 0 345-206 576-511 576zm0-161c226 0 329-195 329-415 0-222-103-419-329-419-223 0-326 196-326 419 0 220 103 415 326 415" id="ar"/><path fill="#282c33" d="M338-1490V0H158v-1490h180" id="as"/><g id="a"><use transform="matrix(0.0087890625,0,0,0.0087890625,0,0)" xlink:href="#aq"/><use transform="matrix(0.0087890625,0,0,0.0087890625,11.3994140625,0)" xlink:href="#ar"/><use transform="matrix(0.0087890625,0,0,0.0087890625,22.1923828125,0)" xlink:href="#ar"/><use transform="matrix(0.0087890625,0,0,0.0087890625,32.9853515625,0)" xlink:href="#as"/></g><path fill="#282c33" d="M763 24c-353 0-583-224-583-531v-983h190v968c0 214 149 370 393 370 243 0 391-156 391-370v-968h190v983c0 307-230 531-581 531" id="at"/><path fill="#282c33" d="M538 24C308 24 148-78 108-271l171-41c32 123 123 178 257 178 156 0 256-77 256-169 0-77-54-128-164-154l-186-44c-203-48-300-148-300-305 0-192 176-326 414-326 230 0 351 112 402 269l-163 42c-31-80-94-158-238-158-133 0-233 69-233 162 0 83 57 129 188 160l169 40c203 48 298 149 298 302 0 196-179 339-441 339" id="au"/><path fill="#282c33" d="M628 24c-324 0-524-230-524-574 0-343 198-582 503-582 237 0 487 146 487 559v75H286c9 234 145 362 343 362 132 0 231-58 273-172l174 48C1024-91 857 24 628 24zM287-650h624c-17-190-120-322-304-322-192 0-309 151-320 322" id="av"/><path fill="#282c33" d="M158 0v-1118h174v172h12c41-113 157-188 290-188 26 0 70 2 91 3v181c-11-2-60-10-108-10-161 0-279 109-279 260V0H158" id="aw"/><g id="b"><use transform="matrix(0.0087890625,0,0,0.0087890625,0,0)" xlink:href="#at"/><use transform="matrix(0.0087890625,0,0,0.0087890625,13.39453125,0)" xlink:href="#au"/><use transform="matrix(0.0087890625,0,0,0.0087890625,22.8955078125,0)" xlink:href="#av"/><use transform="matrix(0.0087890625,0,0,0.0087890625,33.3896484375,0)" xlink:href="#aw"/></g><path fill="#282c33" d="M180 0v-1490h901v168H370v510h643v168H370V0H180" id="ax"/><path fill="#282c33" d="M338-670V0H158v-1118h173l1 207c72-158 192-221 342-221 226 0 378 139 378 422V0H872v-695c0-172-96-275-252-275-161 0-282 109-282 300" id="ay"/><path fill="#282c33" d="M598-1118v154H368v674c0 100 37 144 132 144 23 0 62-6 92-12L629-6c-37 13-88 20-134 20-193 0-307-107-307-290v-688H20v-154h168v-266h180v266h230" id="az"/><path fill="#282c33" d="M577 24c-279 0-473-224-473-580 0-354 195-576 474-576 218 0 287 134 324 193h14v-551h180V0H922v-173h-20C865-111 790 24 577 24zm27-161c203 0 314-172 314-421 0-247-108-413-314-413-212 0-317 181-317 413 0 235 108 421 317 421" id="aA"/><g id="c"><use transform="matrix(0.0087890625,0,0,0.0087890625,0,0)" xlink:href="#ax"/><use transform="matrix(0.0087890625,0,0,0.0087890625,10.0986328125,0)" xlink:href="#aw"/><use transform="matrix(0.0087890625,0,0,0.0087890625,16.576171875,0)" xlink:href="#ar"/><use transform="matrix(0.0087890625,0,0,0.0087890625,27.369140625,0)" xlink:href="#ay"/><use transform="matrix(0.0087890625,0,0,0.0087890625,38.00390625,0)" xlink:href="#az"/><use transform="matrix(0.0087890625,0,0,0.0087890625,43.716796875,0)" xlink:href="#av"/><use transform="matrix(0.0087890625,0,0,0.0087890625,54.2109375,0)" xlink:href="#ay"/><use transform="matrix(0.0087890625,0,0,0.0087890625,64.845703125,0)" xlink:href="#aA"/></g><path fill="#282c33" d="M180 0v-1490h528c311 0 458 177 458 395 0 191-114 278-244 313v14c139 9 302 137 302 371 0 225-148 397-499 397H180zm190-168h350c232 0 321-102 321-231 0-149-120-277-311-277H370v508zm0-668h328c160 0 286-101 286-255 0-129-87-231-280-231H370v486" id="aB"/><path fill="#282c33" d="M471 26C259 26 90-98 90-318c0-256 228-303 435-329 202-27 287-16 287-108 0-139-79-219-234-219-161 0-248 86-283 164l-173-57c86-203 278-265 451-265 150 0 419 46 419 395V0H815v-152h-12C765-73 660 26 471 26zm31-159c199 0 310-134 310-271v-155c-30 35-226 55-295 64-131 17-246 59-246 186 0 116 97 176 231 176" id="aC"/><path fill="#282c33" d="M613 24c-304 0-509-231-509-576 0-350 205-580 509-580 216 0 392 114 453 309l-173 49c-33-115-133-197-280-197-223 0-326 196-326 419 0 220 103 415 326 415 150 0 252-85 285-206l172 49C1010-95 832 24 613 24" id="aD"/><path fill="#282c33" d="M158 0v-1490h180v865h22l478-493h223L593-638 1096 0H865L456-523 338-412V0H158" id="aE"/><g id="d"><use transform="matrix(0.0087890625,0,0,0.0087890625,0,0)" xlink:href="#aB"/><use transform="matrix(0.0087890625,0,0,0.0087890625,11.77734375,0)" xlink:href="#aC"/><use transform="matrix(0.0087890625,0,0,0.0087890625,21.884765625,0)" xlink:href="#aD"/><use transform="matrix(0.0087890625,0,0,0.0087890625,32.16796875,0)" xlink:href="#aE"/><use transform="matrix(0.0087890625,0,0,0.0087890625,41.642578125,0)" xlink:href="#av"/><use transform="matrix(0.0087890625,0,0,0.0087890625,52.13671875,0)" xlink:href="#ay"/><use transform="matrix(0.0087890625,0,0,0.0087890625,62.771484375,0)" xlink:href="#aA"/></g><g id="e"><use transform="matrix(0.0087890625,0,0,0.0087890625,0,0)" xlink:href="#aq"/><use transform="matrix(0.0087890625,0,0,0.0087890625,11.49609375,0)" xlink:href="#aw"/><use transform="matrix(0.0087890625,0,0,0.0087890625,17.9736328125,0)" xlink:href="#ar"/><use transform="matrix(0.0087890625,0,0,0.0087890625,28.7666015625,0)" xlink:href="#aD"/><use transform="matrix(0.0087890625,0,0,0.0087890625,39.0498046875,0)" xlink:href="#av"/><use transform="matrix(0.0087890625,0,0,0.0087890625,49.5439453125,0)" xlink:href="#au"/><use transform="matrix(0.0087890625,0,0,0.0087890625,59.044921875,0)" xlink:href="#au"/></g><path fill="#282c33" d="M158 418v-1536h174v179h20c37-59 106-193 324-193 279 0 474 222 474 576 0 356-194 580-473 580-213 0-288-135-325-197h-14v591H158zm492-555c209 0 317-186 317-421 0-232-105-413-317-413-206 0-314 166-314 413 0 249 111 421 314 421" id="aF"/><path fill="#282c33" d="M140 405l46-156c120 36 205 19 263-150l32-93L54-1118h197c107 313 237 620 324 950 87-331 219-637 326-950h196L606 167c-68 178-176 259-334 259-64 0-113-12-132-21" id="aG"/><path fill="#282c33" d="M158 0v-1118h175l1 205c55-151 181-225 313-225 147 0 245 90 285 228 53-141 190-228 352-228 194 0 352 125 352 384V0h-181v-749c0-161-105-225-225-225-151 0-243 103-243 244V0H807v-767c0-124-93-207-219-207-131 0-250 92-250 270V0H158" id="aH"/><g id="f"><use transform="matrix(0.0087890625,0,0,0.0087890625,0,0)" xlink:href="#aF"/><use transform="matrix(0.0087890625,0,0,0.0087890625,11.197265625,0)" xlink:href="#aC"/><use transform="matrix(0.0087890625,0,0,0.0087890625,21.041015625,0)" xlink:href="#aG"/><use transform="matrix(0.0087890625,0,0,0.0087890625,31.1572265625,0)" xlink:href="#aH"/><use transform="matrix(0.0087890625,0,0,0.0087890625,46.9248046875,0)" xlink:href="#av"/><use transform="matrix(0.0087890625,0,0,0.0087890625,57.4189453125,0)" xlink:href="#ay"/><use transform="matrix(0.0087890625,0,0,0.0087890625,68.0537109375,0)" xlink:href="#az"/></g><path fill="#282c33" d="M600 0L52-1490h200c166 485 304 806 458 1336 156-533 285-846 449-1336h202L819 0H600" id="aI"/><path fill="#282c33" d="M158 0v-1118h180V0H158zm91-1301c-68 0-125-53-125-119s57-119 125-119c69 0 126 53 126 119s-57 119-126 119" id="aJ"/><path fill="#282c33" d="M409 0L70-1118h191c89 329 165 560 243 925 75-353 154-601 240-925h192c85 325 161 564 235 922 77-354 157-598 244-922h191L1267 0h-179c-86-307-176-590-250-913C763-588 675-308 588 0H409" id="aK"/><g id="g"><use transform="matrix(0.0087890625,0,0,0.0087890625,0,0)" xlink:href="#aI"/><use transform="matrix(0.0087890625,0,0,0.0087890625,12.4189453125,0)" xlink:href="#aJ"/><use transform="matrix(0.0087890625,0,0,0.0087890625,16.7783203125,0)" xlink:href="#av"/><use transform="matrix(0.0087890625,0,0,0.0087890625,26.947265625,0)" xlink:href="#aK"/></g><g id="h"><use transform="matrix(0.0087890625,0,0,0.0087890625,0,0)" xlink:href="#as"/><use transform="matrix(0.0087890625,0,0,0.0087890625,4.359375,0)" xlink:href="#ar"/><use transform="matrix(0.0087890625,0,0,0.0087890625,15.15234375,0)" xlink:href="#az"/><use transform="matrix(0.0087890625,0,0,0.0087890625,20.865234375,0)" xlink:href="#au"/></g><path fill="#282c33" d="M783 20c-382 0-661-292-661-764 0-473 279-766 661-766 302 0 548 182 601 489h-190c-42-204-217-313-411-313-268 0-476 208-476 590 0 381 209 588 476 588 195 0 369-110 411-313h190c-52 303-296 489-601 489" id="aL"/><g id="i"><use transform="matrix(0.0087890625,0,0,0.0087890625,0,0)" xlink:href="#aL"/><use transform="matrix(0.0087890625,0,0,0.0087890625,13.1484375,0)" xlink:href="#aC"/><use transform="matrix(0.0087890625,0,0,0.0087890625,23.255859375,0)" xlink:href="#as"/><use transform="matrix(0.0087890625,0,0,0.0087890625,27.615234375,0)" xlink:href="#as"/></g><path fill="#282c33" d="M611 442c-248 0-391-105-460-228l146-94c47 65 117 165 314 165 178 0 307-82 307-266v-224h-17C863-141 792-18 576-18c-268 0-472-195-472-546 0-346 197-568 476-568 216 0 288 133 326 193h17v-179h175V29c0 289-215 413-487 413zm-5-620c203 0 314-146 314-390 0-237-108-403-314-403-213 0-319 180-319 403 0 230 109 390 319 390" id="aM"/><g id="j"><use transform="matrix(0.0087890625,0,0,0.0087890625,0,0)" xlink:href="#aM"/><use transform="matrix(0.0087890625,0,0,0.0087890625,11.0390625,0)" xlink:href="#av"/><use transform="matrix(0.0087890625,0,0,0.0087890625,21.533203125,0)" xlink:href="#az"/></g><g id="k"><use transform="matrix(0.0087890625,0,0,0.0087890625,0,0)" xlink:href="#aC"/><use transform="matrix(0.0087890625,0,0,0.0087890625,10.107421875,0)" xlink:href="#as"/><use transform="matrix(0.0087890625,0,0,0.0087890625,14.466796875,0)" xlink:href="#as"/></g><g id="l"><use transform="matrix(0.0087890625,0,0,0.0087890625,0,0)" xlink:href="#as"/><use transform="matrix(0.0087890625,0,0,0.0087890625,4.359375,0)" xlink:href="#ar"/><use transform="matrix(0.0087890625,0,0,0.0087890625,15.15234375,0)" xlink:href="#az"/><use transform="matrix(0.0087890625,0,0,0.0087890625,20.865234375,0)" xlink:href="#au"/></g><use transform="matrix(0.0087890625,0,0,0.0087890625,0,0)" xlink:href="#ar" id="m"/><g id="n"><use transform="matrix(0.0087890625,0,0,0.0087890625,0,0)" xlink:href="#aF"/><use transform="matrix(0.0087890625,0,0,0.0087890625,11.197265625,0)" xlink:href="#aC"/><use transform="matrix(0.0087890625,0,0,0.0087890625,21.3046875,0)" xlink:href="#aM"/><use transform="matrix(0.0087890625,0,0,0.0087890625,32.34375,0)" xlink:href="#av"/></g><g id="o"><use transform="matrix(0.0087890625,0,0,0.0087890625,0,0)" xlink:href="#aI"/><use transform="matrix(0.0087890625,0,0,0.0087890625,11.5048828125,0)" xlink:href="#aC"/><use transform="matrix(0.0087890625,0,0,0.0087890625,21.6123046875,0)" xlink:href="#as"/><use transform="matrix(0.0087890625,0,0,0.0087890625,25.9716796875,0)" xlink:href="#aJ"/><use transform="matrix(0.0087890625,0,0,0.0087890625,30.3310546875,0)" xlink:href="#aA"/><use transform="matrix(0.0087890625,0,0,0.0087890625,41.3525390625,0)" xlink:href="#aC"/><use transform="matrix(0.0087890625,0,0,0.0087890625,51.4599609375,0)" xlink:href="#az"/><use transform="matrix(0.0087890625,0,0,0.0087890625,57.1728515625,0)" xlink:href="#av"/></g><path fill="#282c33" d="M537 14c-226 0-379-139-379-422v-710h180v695c0 172 97 275 253 275 160 0 281-109 281-300v-670h181V0H879v-209C806-46 684 14 537 14" id="aN"/><g id="p"><use transform="matrix(0.0087890625,0,0,0.0087890625,0,0)" xlink:href="#aJ"/><use transform="matrix(0.0087890625,0,0,0.0087890625,4.359375,0)" xlink:href="#ay"/><use transform="matrix(0.0087890625,0,0,0.0087890625,14.994140625,0)" xlink:href="#aF"/><use transform="matrix(0.0087890625,0,0,0.0087890625,26.015625,0)" xlink:href="#aN"/><use transform="matrix(0.0087890625,0,0,0.0087890625,36.6591796875,0)" xlink:href="#az"/></g><g id="q"><use transform="matrix(0.0087890625,0,0,0.0087890625,0,0)" xlink:href="#aL"/><use transform="matrix(0.0087890625,0,0,0.0087890625,13.1484375,0)" xlink:href="#aw"/><use transform="matrix(0.0087890625,0,0,0.0087890625,19.6259765625,0)" xlink:href="#av"/><use transform="matrix(0.0087890625,0,0,0.0087890625,30.2958984375,0)" xlink:href="#aC"/><use transform="matrix(0.0087890625,0,0,0.0087890625,40.4033203125,0)" xlink:href="#az"/><use transform="matrix(0.0087890625,0,0,0.0087890625,46.1162109375,0)" xlink:href="#av"/></g><g id="r"><use transform="matrix(0.0087890625,0,0,0.0087890625,0,0)" xlink:href="#ay"/><use transform="matrix(0.0087890625,0,0,0.0087890625,10.634765625,0)" xlink:href="#av"/><use transform="matrix(0.0087890625,0,0,0.0087890625,20.8037109375,0)" xlink:href="#aK"/></g><path fill="#282c33" d="M677 24c-213 0-288-135-325-197h-20V0H158v-1490h180v551h14c37-59 106-193 324-193 279 0 474 222 474 576 0 356-194 580-473 580zm-27-161c209 0 317-186 317-421 0-232-105-413-317-413-206 0-314 166-314 413 0 249 111 421 314 421" id="aO"/><g id="s"><use transform="matrix(0.0087890625,0,0,0.0087890625,0,0)" xlink:href="#aO"/><use transform="matrix(0.0087890625,0,0,0.0087890625,11.021484375,0)" xlink:href="#aJ"/><use transform="matrix(0.0087890625,0,0,0.0087890625,15.380859375,0)" xlink:href="#aA"/></g><path fill="#282c33" d="M370-1490V0H180v-1490h190" id="aP"/><g id="t"><use transform="matrix(0.0087890625,0,0,0.0087890625,0,0)" xlink:href="#aP"/><use transform="matrix(0.0087890625,0,0,0.0087890625,4.833984375,0)" xlink:href="#au"/></g><g id="u"><use transform="matrix(0.0087890625,0,0,0.0087890625,0,0)" xlink:href="#aJ"/><use transform="matrix(0.0087890625,0,0,0.0087890625,4.359375,0)" xlink:href="#ay"/><use transform="matrix(0.0087890625,0,0,0.0087890625,14.994140625,0)" xlink:href="#aF"/><use transform="matrix(0.0087890625,0,0,0.0087890625,26.015625,0)" xlink:href="#aN"/><use transform="matrix(0.0087890625,0,0,0.0087890625,36.6591796875,0)" xlink:href="#az"/></g><path fill="#282c33" d="M481 0L54-1118h197c107 314 236 620 325 951 87-331 217-637 324-951h197L670 0H481" id="aQ"/><path fill="#282c33" d="M383-449c-3-277 82-343 222-425 88-53 156-134 156-250 0-139-108-227-243-227-118 0-235 70-246 236H82c10-251 200-395 436-395 259 0 427 165 427 393 0 161-74 273-203 352-132 80-180 132-178 316H383zm93 462c-75 0-135-60-135-134 0-75 60-135 135-135 74 0 134 60 134 135 0 74-60 134-134 134" id="aR"/><g id="v"><use transform="matrix(0.0087890625,0,0,0.0087890625,0,0)" xlink:href="#aQ"/><use transform="matrix(0.0087890625,0,0,0.0087890625,10.0283203125,0)" xlink:href="#aC"/><use transform="matrix(0.0087890625,0,0,0.0087890625,20.1357421875,0)" xlink:href="#as"/><use transform="matrix(0.0087890625,0,0,0.0087890625,24.4951171875,0)" xlink:href="#aJ"/><use transform="matrix(0.0087890625,0,0,0.0087890625,28.8544921875,0)" xlink:href="#aA"/><use transform="matrix(0.0087890625,0,0,0.0087890625,39.8759765625,0)" xlink:href="#aR"/></g><g id="w"><use transform="matrix(0.0087890625,0,0,0.0087890625,0,0)" xlink:href="#aL"/><use transform="matrix(0.0087890625,0,0,0.0087890625,13.1484375,0)" xlink:href="#as"/><use transform="matrix(0.0087890625,0,0,0.0087890625,17.5078125,0)" xlink:href="#aJ"/><use transform="matrix(0.0087890625,0,0,0.0087890625,21.8671875,0)" xlink:href="#aD"/><use transform="matrix(0.0087890625,0,0,0.0087890625,32.150390625,0)" xlink:href="#aE"/><use transform="matrix(0.0087890625,0,0,0.0087890625,42.029296875,0)" xlink:href="#au"/></g><path fill="#282c33" d="M232-923l-22-567h194l-22 567H232zm340 0l-22-567h194l-22 567H572" id="aS"/><path fill="#282c33" d="M657 26c-323 0-524-166-541-416h195c15 169 171 246 346 246 202 0 356-106 356-265 5-203-294-238-475-293-239-73-380-191-380-389 0-252 224-419 512-419 294 0 499 171 508 396H992c-17-145-151-228-328-228-193 0-321 102-321 242 0 156 175 211 284 241l149 41c160 44 422 134 422 412 0 244-197 432-541 432" id="aT"/><g id="x"><use transform="matrix(0.0087890625,0,0,0.0087890625,0,0)" xlink:href="#aS"/><use transform="matrix(0.0087890625,0,0,0.0087890625,8.384765625,0)" xlink:href="#aT"/><use transform="matrix(0.0087890625,0,0,0.0087890625,19.93359375,0)" xlink:href="#aN"/><use transform="matrix(0.0087890625,0,0,0.0087890625,30.5771484375,0)" xlink:href="#aH"/><use transform="matrix(0.0087890625,0,0,0.0087890625,46.3447265625,0)" xlink:href="#aO"/><use transform="matrix(0.0087890625,0,0,0.0087890625,57.3662109375,0)" xlink:href="#aJ"/><use transform="matrix(0.0087890625,0,0,0.0087890625,61.7255859375,0)" xlink:href="#az"/><use transform="matrix(0.0087890625,0,0,0.0087890625,67.6142578125,0)" xlink:href="#aS"/></g><path fill="#282c33" d="M600 0v-610L52-1490h220l295 481c50 82 90 150 130 243 40-96 80-164 128-243l294-481h219L790-610V0H600" id="aU"/><g id="y"><use transform="matrix(0.0087890625,0,0,0.0087890625,0,0)" xlink:href="#aU"/><use transform="matrix(0.0087890625,0,0,0.0087890625,10.8369140625,0)" xlink:href="#av"/><use transform="matrix(0.0087890625,0,0,0.0087890625,21.3310546875,0)" xlink:href="#au"/></g><path fill="#282c33" d="M789 20c-398 0-667-293-667-764 0-473 273-766 655-766 315 0 558 198 612 487h-196c-61-191-204-311-415-311-262 0-471 207-471 590 0 380 208 588 482 588 249 0 420-165 425-427H828v-166h572v163c0 370-256 606-611 606" id="aV"/><g id="z"><use transform="matrix(0.0087890625,0,0,0.0087890625,0,0)" xlink:href="#aV"/><use transform="matrix(0.0087890625,0,0,0.0087890625,13.4296875,0)" xlink:href="#av"/><use transform="matrix(0.0087890625,0,0,0.0087890625,23.923828125,0)" xlink:href="#az"/></g><path fill="#282c33" d="M645 0H180v-1490h484c435 0 692 280 692 742 0 466-257 748-711 748zM370-168h263c363 0 539-218 539-580 0-358-176-574-521-574H370v1154" id="aW"/><g id="A"><use transform="matrix(0.0087890625,0,0,0.0087890625,0,0)" xlink:href="#aW"/><use transform="matrix(0.0087890625,0,0,0.0087890625,12.990234375,0)" xlink:href="#aJ"/><use transform="matrix(0.0087890625,0,0,0.0087890625,17.349609375,0)" xlink:href="#au"/><use transform="matrix(0.0087890625,0,0,0.0087890625,26.8505859375,0)" xlink:href="#aF"/><use transform="matrix(0.0087890625,0,0,0.0087890625,37.8720703125,0)" xlink:href="#as"/><use transform="matrix(0.0087890625,0,0,0.0087890625,42.2314453125,0)" xlink:href="#aC"/><use transform="matrix(0.0087890625,0,0,0.0087890625,52.0751953125,0)" xlink:href="#aG"/></g><g id="B"><use transform="matrix(0.0087890625,0,0,0.0087890625,0,0)" xlink:href="#aL"/><use transform="matrix(0.0087890625,0,0,0.0087890625,13.1484375,0)" xlink:href="#as"/><use transform="matrix(0.0087890625,0,0,0.0087890625,17.5078125,0)" xlink:href="#aJ"/><use transform="matrix(0.0087890625,0,0,0.0087890625,21.8671875,0)" xlink:href="#aD"/><use transform="matrix(0.0087890625,0,0,0.0087890625,32.150390625,0)" xlink:href="#aE"/></g><g id="C"><use transform="matrix(0.0087890625,0,0,0.0087890625,0,0)" xlink:href="#ar"/><use transform="matrix(0.0087890625,0,0,0.0087890625,10.79296875,0)" xlink:href="#ay"/></g><path fill="#282c33" d="M65 0l393-574-370-544h210c88 136 192 297 267 435 67-142 176-302 264-435h206L661-564 1053 0H844c-94-144-206-310-287-458C484-308 366-142 273 0H65" id="aX"/><g id="D"><use transform="matrix(0.0087890625,0,0,0.0087890625,0,0)" xlink:href="#ay"/><use transform="matrix(0.0087890625,0,0,0.0087890625,10.634765625,0)" xlink:href="#av"/><use transform="matrix(0.0087890625,0,0,0.0087890625,20.724609375,0)" xlink:href="#aX"/><use transform="matrix(0.0087890625,0,0,0.0087890625,30.90234375,0)" xlink:href="#az"/></g><g id="E"><use transform="matrix(0.0087890625,0,0,0.0087890625,0,0)" xlink:href="#as"/><use transform="matrix(0.0087890625,0,0,0.0087890625,4.359375,0)" xlink:href="#ar"/><use transform="matrix(0.0087890625,0,0,0.0087890625,15.15234375,0)" xlink:href="#az"/></g><g id="F"><use transform="matrix(0.0087890625,0,0,0.0087890625,0,0)" xlink:href="#aA"/><use transform="matrix(0.0087890625,0,0,0.0087890625,11.021484375,0)" xlink:href="#av"/><use transform="matrix(0.0087890625,0,0,0.0087890625,21.515625,0)" xlink:href="#az"/><use transform="matrix(0.0087890625,0,0,0.0087890625,27.4921875,0)" xlink:href="#aC"/><use transform="matrix(0.0087890625,0,0,0.0087890625,37.599609375,0)" xlink:href="#aJ"/><use transform="matrix(0.0087890625,0,0,0.0087890625,41.958984375,0)" xlink:href="#as"/><use transform="matrix(0.0087890625,0,0,0.0087890625,46.318359375,0)" xlink:href="#au"/></g><g id="G"><use transform="matrix(0.0087890625,0,0,0.0087890625,0,0)" xlink:href="#as"/><use transform="matrix(0.0087890625,0,0,0.0087890625,4.359375,0)" xlink:href="#ar"/><use transform="matrix(0.0087890625,0,0,0.0087890625,15.15234375,0)" xlink:href="#az"/></g><g id="H"><use transform="matrix(0.0087890625,0,0,0.0087890625,0,0)" xlink:href="#aO"/><use transform="matrix(0.0087890625,0,0,0.0087890625,10.669921875,0)" xlink:href="#aG"/></g><g id="I"><use transform="matrix(0.0087890625,0,0,0.0087890625,0,0)" xlink:href="#aJ"/><use transform="matrix(0.0087890625,0,0,0.0087890625,4.359375,0)" xlink:href="#aA"/></g><path fill="#282c33" d="M338-670V0H158v-1490h180v566c73-149 190-208 336-208 226 0 379 139 379 422V0H872v-695c0-172-96-275-252-275-161 0-282 109-282 300" id="aY"/><g id="J"><use transform="matrix(0.0087890625,0,0,0.0087890625,0,0)" xlink:href="#aL"/><use transform="matrix(0.0087890625,0,0,0.0087890625,13.1484375,0)" xlink:href="#aY"/><use transform="matrix(0.0087890625,0,0,0.0087890625,23.7919921875,0)" xlink:href="#ar"/><use transform="matrix(0.0087890625,0,0,0.0087890625,34.5849609375,0)" xlink:href="#ar"/><use transform="matrix(0.0087890625,0,0,0.0087890625,45.3779296875,0)" xlink:href="#au"/><use transform="matrix(0.0087890625,0,0,0.0087890625,54.87890625,0)" xlink:href="#av"/></g><g id="K"><use transform="matrix(0.0087890625,0,0,0.0087890625,0,0)" xlink:href="#az"/><use transform="matrix(0.0087890625,0,0,0.0087890625,5.888671875,0)" xlink:href="#aY"/><use transform="matrix(0.0087890625,0,0,0.0087890625,16.5322265625,0)" xlink:href="#av"/></g><g id="L"><use transform="matrix(0.0087890625,0,0,0.0087890625,0,0)" xlink:href="#aO"/><use transform="matrix(0.0087890625,0,0,0.0087890625,11.021484375,0)" xlink:href="#aJ"/><use transform="matrix(0.0087890625,0,0,0.0087890625,15.380859375,0)" xlink:href="#aA"/><use transform="matrix(0.0087890625,0,0,0.0087890625,26.40234375,0)" xlink:href="#aA"/><use transform="matrix(0.0087890625,0,0,0.0087890625,37.423828125,0)" xlink:href="#aJ"/><use transform="matrix(0.0087890625,0,0,0.0087890625,41.783203125,0)" xlink:href="#ay"/><use transform="matrix(0.0087890625,0,0,0.0087890625,52.41796875,0)" xlink:href="#aM"/></g><g id="M"><use transform="matrix(0.0087890625,0,0,0.0087890625,0,0)" xlink:href="#aF"/><use transform="matrix(0.0087890625,0,0,0.0087890625,11.021484375,0)" xlink:href="#aw"/><use transform="matrix(0.0087890625,0,0,0.0087890625,18.0791015625,0)" xlink:href="#aJ"/><use transform="matrix(0.0087890625,0,0,0.0087890625,22.4384765625,0)" xlink:href="#aD"/><use transform="matrix(0.0087890625,0,0,0.0087890625,32.7216796875,0)" xlink:href="#av"/></g><path fill="#282c33" d="M180 0v-1490h224l606 953c40 63 108 177 176 312-27-437-7-821-13-1265h190V0h-226C860-448 622-778 356-1262c27 476 11 792 15 1262H180" id="aZ"/><g id="N"><use transform="matrix(0.0087890625,0,0,0.0087890625,0,0)" xlink:href="#aZ"/><use transform="matrix(0.0087890625,0,0,0.0087890625,13.5615234375,0)" xlink:href="#ar"/></g><g id="O"><use transform="matrix(0.0087890625,0,0,0.0087890625,0,0)" xlink:href="#aQ"/><use transform="matrix(0.0087890625,0,0,0.0087890625,10.0283203125,0)" xlink:href="#aC"/><use transform="matrix(0.0087890625,0,0,0.0087890625,20.1357421875,0)" xlink:href="#as"/><use transform="matrix(0.0087890625,0,0,0.0087890625,24.4951171875,0)" xlink:href="#aJ"/><use transform="matrix(0.0087890625,0,0,0.0087890625,28.8544921875,0)" xlink:href="#aA"/><use transform="matrix(0.0087890625,0,0,0.0087890625,39.8759765625,0)" xlink:href="#aC"/><use transform="matrix(0.0087890625,0,0,0.0087890625,49.9833984375,0)" xlink:href="#az"/><use transform="matrix(0.0087890625,0,0,0.0087890625,55.8720703125,0)" xlink:href="#aJ"/><use transform="matrix(0.0087890625,0,0,0.0087890625,60.2314453125,0)" xlink:href="#ar"/><use transform="matrix(0.0087890625,0,0,0.0087890625,71.0244140625,0)" xlink:href="#ay"/></g><g id="P"><use transform="matrix(0.0087890625,0,0,0.0087890625,0,0)" xlink:href="#av"/><use transform="matrix(0.0087890625,0,0,0.0087890625,10.494140625,0)" xlink:href="#aw"/><use transform="matrix(0.0087890625,0,0,0.0087890625,17.5517578125,0)" xlink:href="#aw"/><use transform="matrix(0.0087890625,0,0,0.0087890625,24.029296875,0)" xlink:href="#ar"/><use transform="matrix(0.0087890625,0,0,0.0087890625,34.822265625,0)" xlink:href="#aw"/><use transform="matrix(0.0087890625,0,0,0.0087890625,41.5986328125,0)" xlink:href="#au"/></g><g id="Q"><use transform="matrix(0.0087890625,0,0,0.0087890625,0,0)" xlink:href="#aI"/><use transform="matrix(0.0087890625,0,0,0.0087890625,11.5048828125,0)" xlink:href="#aC"/><use transform="matrix(0.0087890625,0,0,0.0087890625,21.6123046875,0)" xlink:href="#as"/><use transform="matrix(0.0087890625,0,0,0.0087890625,25.9716796875,0)" xlink:href="#aJ"/><use transform="matrix(0.0087890625,0,0,0.0087890625,30.3310546875,0)" xlink:href="#aA"/><use transform="matrix(0.0087890625,0,0,0.0087890625,41.3525390625,0)" xlink:href="#aC"/><use transform="matrix(0.0087890625,0,0,0.0087890625,51.4599609375,0)" xlink:href="#az"/><use transform="matrix(0.0087890625,0,0,0.0087890625,57.1728515625,0)" xlink:href="#av"/></g><g id="R"><use transform="matrix(0.0087890625,0,0,0.0087890625,0,0)" xlink:href="#aw"/><use transform="matrix(0.0087890625,0,0,0.0087890625,6.4775390625,0)" xlink:href="#av"/><use transform="matrix(0.0087890625,0,0,0.0087890625,16.9716796875,0)" xlink:href="#aF"/><use transform="matrix(0.0087890625,0,0,0.0087890625,28.1689453125,0)" xlink:href="#aC"/><use transform="matrix(0.0087890625,0,0,0.0087890625,38.0126953125,0)" xlink:href="#aG"/></g><path fill="#282c33" d="M180 0v-1490h510c348 0 508 194 508 460 0 198-88 351-276 417L1256 0h-220L726-579c-117 2-238 0-356 1V0H180zm190-747h312c235 0 327-108 327-283 0-177-92-293-329-293H370v576" id="ba"/><g id="S"><use transform="matrix(0.0087890625,0,0,0.0087890625,0,0)" xlink:href="#ba"/><use transform="matrix(0.0087890625,0,0,0.0087890625,11.3203125,0)" xlink:href="#av"/><use transform="matrix(0.0087890625,0,0,0.0087890625,21.814453125,0)" xlink:href="#aH"/><use transform="matrix(0.0087890625,0,0,0.0087890625,37.58203125,0)" xlink:href="#aC"/><use transform="matrix(0.0087890625,0,0,0.0087890625,47.689453125,0)" xlink:href="#aF"/></g><g id="T"><use transform="matrix(0.0087890625,0,0,0.0087890625,0,0)" xlink:href="#aY"/><use transform="matrix(0.0087890625,0,0,0.0087890625,10.6435546875,0)" xlink:href="#aJ"/><use transform="matrix(0.0087890625,0,0,0.0087890625,15.0029296875,0)" xlink:href="#aM"/><use transform="matrix(0.0087890625,0,0,0.0087890625,26.0419921875,0)" xlink:href="#aY"/><use transform="matrix(0.0087890625,0,0,0.0087890625,36.685546875,0)" xlink:href="#av"/><use transform="matrix(0.0087890625,0,0,0.0087890625,47.1796875,0)" xlink:href="#au"/><use transform="matrix(0.0087890625,0,0,0.0087890625,56.6806640625,0)" xlink:href="#az"/></g><g id="U"><use transform="matrix(0.0087890625,0,0,0.0087890625,0,0)" xlink:href="#aO"/><use transform="matrix(0.0087890625,0,0,0.0087890625,11.021484375,0)" xlink:href="#aJ"/><use transform="matrix(0.0087890625,0,0,0.0087890625,15.380859375,0)" xlink:href="#aA"/></g><path fill="#282c33" d="M678-1118v154H420V0H240v-964H20v-154h220v-149c0-194 155-293 318-293 85 0 141 18 168 30l-50 154c-19-6-47-17-97-17-111 0-159 58-159 166v109h258" id="bb"/><g id="V"><use transform="matrix(0.0087890625,0,0,0.0087890625,0,0)" xlink:href="#aZ"/><use transform="matrix(0.0087890625,0,0,0.0087890625,13.5615234375,0)" xlink:href="#ar"/><use transform="matrix(0.0087890625,0,0,0.0087890625,24.3544921875,0)" xlink:href="#az"/><use transform="matrix(0.0087890625,0,0,0.0087890625,30.2431640625,0)" xlink:href="#aJ"/><use transform="matrix(0.0087890625,0,0,0.0087890625,34.6025390625,0)" xlink:href="#bb"/><use transform="matrix(0.0087890625,0,0,0.0087890625,41.2646484375,0)" xlink:href="#aG"/></g><g id="W"><use transform="matrix(0.0087890625,0,0,0.0087890625,0,0)" xlink:href="#aN"/><use transform="matrix(0.0087890625,0,0,0.0087890625,10.6435546875,0)" xlink:href="#au"/><use transform="matrix(0.0087890625,0,0,0.0087890625,20.14453125,0)" xlink:href="#av"/><use transform="matrix(0.0087890625,0,0,0.0087890625,30.638671875,0)" xlink:href="#aw"/></g><g id="X"><use transform="matrix(0.0087890625,0,0,0.0087890625,0,0)" xlink:href="#aC"/><use transform="matrix(0.0087890625,0,0,0.0087890625,10.107421875,0)" xlink:href="#aO"/><use transform="matrix(0.0087890625,0,0,0.0087890625,21.12890625,0)" xlink:href="#ar"/><use transform="matrix(0.0087890625,0,0,0.0087890625,31.921875,0)" xlink:href="#aN"/><use transform="matrix(0.0087890625,0,0,0.0087890625,42.5654296875,0)" xlink:href="#az"/></g><g id="Y"><use transform="matrix(0.0087890625,0,0,0.0087890625,0,0)" xlink:href="#au"/><use transform="matrix(0.0087890625,0,0,0.0087890625,9.5009765625,0)" xlink:href="#aN"/><use transform="matrix(0.0087890625,0,0,0.0087890625,20.14453125,0)" xlink:href="#aD"/><use transform="matrix(0.0087890625,0,0,0.0087890625,30.427734375,0)" xlink:href="#aD"/><use transform="matrix(0.0087890625,0,0,0.0087890625,40.7109375,0)" xlink:href="#av"/><use transform="matrix(0.0087890625,0,0,0.0087890625,51.205078125,0)" xlink:href="#au"/><use transform="matrix(0.0087890625,0,0,0.0087890625,60.7060546875,0)" xlink:href="#au"/></g><g id="Z"><use transform="matrix(0.0087890625,0,0,0.0087890625,0,0)" xlink:href="#aW"/><use transform="matrix(0.0087890625,0,0,0.0087890625,12.990234375,0)" xlink:href="#aJ"/><use transform="matrix(0.0087890625,0,0,0.0087890625,17.349609375,0)" xlink:href="#aF"/><use transform="matrix(0.0087890625,0,0,0.0087890625,28.37109375,0)" xlink:href="#as"/><use transform="matrix(0.0087890625,0,0,0.0087890625,32.73046875,0)" xlink:href="#aC"/><use transform="matrix(0.0087890625,0,0,0.0087890625,42.57421875,0)" xlink:href="#aG"/></g><g id="aa"><use transform="matrix(0.0087890625,0,0,0.0087890625,0,0)" xlink:href="#au"/><use transform="matrix(0.0087890625,0,0,0.0087890625,9.5009765625,0)" xlink:href="#aN"/><use transform="matrix(0.0087890625,0,0,0.0087890625,20.14453125,0)" xlink:href="#aD"/><use transform="matrix(0.0087890625,0,0,0.0087890625,30.427734375,0)" xlink:href="#aD"/><use transform="matrix(0.0087890625,0,0,0.0087890625,40.7109375,0)" xlink:href="#av"/><use transform="matrix(0.0087890625,0,0,0.0087890625,51.205078125,0)" xlink:href="#au"/><use transform="matrix(0.0087890625,0,0,0.0087890625,60.7060546875,0)" xlink:href="#au"/></g><g id="ab"><use transform="matrix(0.0087890625,0,0,0.0087890625,0,0)" xlink:href="#ay"/><use transform="matrix(0.0087890625,0,0,0.0087890625,10.634765625,0)" xlink:href="#ar"/><use transform="matrix(0.0087890625,0,0,0.0087890625,21.427734375,0)" xlink:href="#az"/><use transform="matrix(0.0087890625,0,0,0.0087890625,27.31640625,0)" xlink:href="#aJ"/><use transform="matrix(0.0087890625,0,0,0.0087890625,31.67578125,0)" xlink:href="#bb"/><use transform="matrix(0.0087890625,0,0,0.0087890625,38.337890625,0)" xlink:href="#aJ"/><use transform="matrix(0.0087890625,0,0,0.0087890625,42.697265625,0)" xlink:href="#aD"/><use transform="matrix(0.0087890625,0,0,0.0087890625,53.15625,0)" xlink:href="#aC"/><use transform="matrix(0.0087890625,0,0,0.0087890625,63.263671875,0)" xlink:href="#az"/><use transform="matrix(0.0087890625,0,0,0.0087890625,69.15234375,0)" xlink:href="#aJ"/><use transform="matrix(0.0087890625,0,0,0.0087890625,73.51171875,0)" xlink:href="#ar"/><use transform="matrix(0.0087890625,0,0,0.0087890625,84.3046875,0)" xlink:href="#ay"/></g><path fill="#282c33" d="M784 20c-382 0-662-292-662-764 0-473 280-766 662-766s660 293 660 766c0 472-278 764-660 764zm0-176c266 0 475-207 475-588 0-383-209-590-475-590-268 0-477 208-477 590 0 380 209 588 477 588" id="bc"/><g id="ac"><use transform="matrix(0.0087890625,0,0,0.0087890625,0,0)" xlink:href="#bc"/><use transform="matrix(0.0087890625,0,0,0.0087890625,13.763671875,0)" xlink:href="#az"/><use transform="matrix(0.0087890625,0,0,0.0087890625,19.65234375,0)" xlink:href="#aY"/><use transform="matrix(0.0087890625,0,0,0.0087890625,30.2958984375,0)" xlink:href="#av"/><use transform="matrix(0.0087890625,0,0,0.0087890625,40.7900390625,0)" xlink:href="#aw"/></g><g id="ad"><use transform="matrix(0.0087890625,0,0,0.0087890625,0,0)" xlink:href="#aO"/><use transform="matrix(0.0087890625,0,0,0.0087890625,11.021484375,0)" xlink:href="#aJ"/><use transform="matrix(0.0087890625,0,0,0.0087890625,15.380859375,0)" xlink:href="#aA"/></g><g id="ae"><use transform="matrix(0.0087890625,0,0,0.0087890625,0,0)" xlink:href="#av"/><use transform="matrix(0.0087890625,0,0,0.0087890625,10.08984375,0)" xlink:href="#aX"/><use transform="matrix(0.0087890625,0,0,0.0087890625,19.916015625,0)" xlink:href="#aJ"/><use transform="matrix(0.0087890625,0,0,0.0087890625,24.275390625,0)" xlink:href="#au"/><use transform="matrix(0.0087890625,0,0,0.0087890625,33.7763671875,0)" xlink:href="#az"/><use transform="matrix(0.0087890625,0,0,0.0087890625,39.4892578125,0)" xlink:href="#au"/><use transform="matrix(0.0087890625,0,0,0.0087890625,48.990234375,0)" xlink:href="#aR"/></g><g id="af"><use transform="matrix(0.0087890625,0,0,0.0087890625,0,0)" xlink:href="#aU"/><use transform="matrix(0.0087890625,0,0,0.0087890625,10.8369140625,0)" xlink:href="#av"/><use transform="matrix(0.0087890625,0,0,0.0087890625,21.3310546875,0)" xlink:href="#au"/></g><g id="ag"><use transform="matrix(0.0087890625,0,0,0.0087890625,0,0)" xlink:href="#aF"/><use transform="matrix(0.0087890625,0,0,0.0087890625,11.021484375,0)" xlink:href="#aw"/><use transform="matrix(0.0087890625,0,0,0.0087890625,17.4990234375,0)" xlink:href="#av"/><use transform="matrix(0.0087890625,0,0,0.0087890625,27.6416015625,0)" xlink:href="#aQ"/><use transform="matrix(0.0087890625,0,0,0.0087890625,37.7578125,0)" xlink:href="#aJ"/><use transform="matrix(0.0087890625,0,0,0.0087890625,42.1171875,0)" xlink:href="#ar"/><use transform="matrix(0.0087890625,0,0,0.0087890625,52.91015625,0)" xlink:href="#aN"/><use transform="matrix(0.0087890625,0,0,0.0087890625,63.5537109375,0)" xlink:href="#au"/></g><g id="ah"><use transform="matrix(0.0087890625,0,0,0.0087890625,0,0)" xlink:href="#aO"/><use transform="matrix(0.0087890625,0,0,0.0087890625,11.021484375,0)" xlink:href="#aJ"/><use transform="matrix(0.0087890625,0,0,0.0087890625,15.380859375,0)" xlink:href="#aA"/><use transform="matrix(0.0087890625,0,0,0.0087890625,26.40234375,0)" xlink:href="#aA"/><use transform="matrix(0.0087890625,0,0,0.0087890625,37.423828125,0)" xlink:href="#av"/><use transform="matrix(0.0087890625,0,0,0.0087890625,47.91796875,0)" xlink:href="#aw"/></g><g id="ai"><use transform="matrix(0.0087890625,0,0,0.0087890625,0,0)" xlink:href="#aW"/><use transform="matrix(0.0087890625,0,0,0.0087890625,12.990234375,0)" xlink:href="#aJ"/><use transform="matrix(0.0087890625,0,0,0.0087890625,17.349609375,0)" xlink:href="#au"/><use transform="matrix(0.0087890625,0,0,0.0087890625,26.8505859375,0)" xlink:href="#aF"/><use transform="matrix(0.0087890625,0,0,0.0087890625,37.8720703125,0)" xlink:href="#as"/><use transform="matrix(0.0087890625,0,0,0.0087890625,42.2314453125,0)" xlink:href="#aC"/><use transform="matrix(0.0087890625,0,0,0.0087890625,52.0751953125,0)" xlink:href="#aG"/></g><g id="aj"><use transform="matrix(0.0087890625,0,0,0.0087890625,0,0)" xlink:href="#ay"/><use transform="matrix(0.0087890625,0,0,0.0087890625,10.634765625,0)" xlink:href="#ar"/><use transform="matrix(0.0087890625,0,0,0.0087890625,21.427734375,0)" xlink:href="#az"/><use transform="matrix(0.0087890625,0,0,0.0087890625,27.31640625,0)" xlink:href="#aJ"/><use transform="matrix(0.0087890625,0,0,0.0087890625,31.67578125,0)" xlink:href="#bb"/><use transform="matrix(0.0087890625,0,0,0.0087890625,38.337890625,0)" xlink:href="#aJ"/><use transform="matrix(0.0087890625,0,0,0.0087890625,42.697265625,0)" xlink:href="#aD"/><use transform="matrix(0.0087890625,0,0,0.0087890625,53.15625,0)" xlink:href="#aC"/><use transform="matrix(0.0087890625,0,0,0.0087890625,63.263671875,0)" xlink:href="#az"/><use transform="matrix(0.0087890625,0,0,0.0087890625,69.15234375,0)" xlink:href="#aJ"/><use transform="matrix(0.0087890625,0,0,0.0087890625,73.51171875,0)" xlink:href="#ar"/><use transform="matrix(0.0087890625,0,0,0.0087890625,84.3046875,0)" xlink:href="#ay"/></g><g id="ak"><use transform="matrix(0.0087890625,0,0,0.0087890625,0,0)" xlink:href="#bb"/><use transform="matrix(0.0087890625,0,0,0.0087890625,6.134765625,0)" xlink:href="#ar"/><use transform="matrix(0.0087890625,0,0,0.0087890625,16.927734375,0)" xlink:href="#aw"/></g><g id="al"><use transform="matrix(0.0087890625,0,0,0.0087890625,0,0)" xlink:href="#aF"/><use transform="matrix(0.0087890625,0,0,0.0087890625,11.021484375,0)" xlink:href="#aw"/><use transform="matrix(0.0087890625,0,0,0.0087890625,17.4990234375,0)" xlink:href="#av"/><use transform="matrix(0.0087890625,0,0,0.0087890625,27.6416015625,0)" xlink:href="#aQ"/><use transform="matrix(0.0087890625,0,0,0.0087890625,37.7578125,0)" xlink:href="#aJ"/><use transform="matrix(0.0087890625,0,0,0.0087890625,42.1171875,0)" xlink:href="#ar"/><use transform="matrix(0.0087890625,0,0,0.0087890625,52.91015625,0)" xlink:href="#aN"/><use transform="matrix(0.0087890625,0,0,0.0087890625,63.5537109375,0)" xlink:href="#au"/></g><g id="am"><use transform="matrix(0.0087890625,0,0,0.0087890625,0,0)" xlink:href="#aB"/><use transform="matrix(0.0087890625,0,0,0.0087890625,11.77734375,0)" xlink:href="#aJ"/><use transform="matrix(0.0087890625,0,0,0.0087890625,16.13671875,0)" xlink:href="#aA"/></g><g id="an"><use transform="matrix(0.0087890625,0,0,0.0087890625,0,0)" xlink:href="#ar"/><use transform="matrix(0.0087890625,0,0,0.0087890625,10.44140625,0)" xlink:href="#aQ"/><use transform="matrix(0.0087890625,0,0,0.0087890625,20.2060546875,0)" xlink:href="#av"/><use transform="matrix(0.0087890625,0,0,0.0087890625,30.7001953125,0)" xlink:href="#aw"/><use transform="matrix(0.0087890625,0,0,0.0087890625,37.7578125,0)" xlink:href="#aw"/><use transform="matrix(0.0087890625,0,0,0.0087890625,44.5341796875,0)" xlink:href="#aN"/><use transform="matrix(0.0087890625,0,0,0.0087890625,55.177734375,0)" xlink:href="#as"/><use transform="matrix(0.0087890625,0,0,0.0087890625,59.537109375,0)" xlink:href="#av"/><use transform="matrix(0.0087890625,0,0,0.0087890625,70.03125,0)" xlink:href="#aA"/></g><g id="ao"><use transform="matrix(0.0087890625,0,0,0.0087890625,0,0)" xlink:href="#aD"/><use transform="matrix(0.0087890625,0,0,0.0087890625,10.283203125,0)" xlink:href="#aw"/><use transform="matrix(0.0087890625,0,0,0.0087890625,16.7607421875,0)" xlink:href="#av"/><use transform="matrix(0.0087890625,0,0,0.0087890625,27.4306640625,0)" xlink:href="#aC"/><use transform="matrix(0.0087890625,0,0,0.0087890625,37.5380859375,0)" xlink:href="#az"/><use transform="matrix(0.0087890625,0,0,0.0087890625,43.2509765625,0)" xlink:href="#av"/><use transform="matrix(0.0087890625,0,0,0.0087890625,53.7451171875,0)" xlink:href="#aA"/></g><g id="ap"><use transform="matrix(0.0087890625,0,0,0.0087890625,0,0)" xlink:href="#aZ"/><use transform="matrix(0.0087890625,0,0,0.0087890625,13.5615234375,0)" xlink:href="#ar"/></g></defs></g></svg>