<svg xmlns="http://www.w3.org/2000/svg" xmlns:xlink="http://www.w3.org/1999/xlink" xmlns:lucid="lucid" width="2662" height="1002"><g transform="translate(801 61)" lucid:page-tab-id="QSIJBMCcx_hD"><path d="M-1000-500h3000v1500h-3000z" fill="#fff"/><path d="M-760 940h-32a8 8 0 0 1-8-8V-52a8 8 0 0 1 8-8h32z" stroke="#000" stroke-width="2" fill="#fff"/><path d="M-760-60h2612a8 8 0 0 1 8 8v312H-760zM-760 260h2620v340H-760zM1860 600v332a8 8 0 0 1-8 8H-760V600z" stroke="#000" stroke-width="2" fill="none"/><use xlink:href="#a" transform="matrix(-1.8369701987210297e-16,-1,1,-1.8369701987210297e-16,-799.9999999999998,940) translate(481.32763671875 27.0478515625)"/><use xlink:href="#b" transform="matrix(-1.8369701987210297e-16,-1,1,-1.8369701987210297e-16,-760,260) translate(139.9169921875 27.0478515625)"/><use xlink:href="#c" transform="matrix(-1.8369701987210297e-16,-1,1,-1.8369701987210297e-16,-759.9999999999998,600) translate(132.06640625 26.5478515625)"/><use xlink:href="#d" transform="matrix(-1.8369701987210297e-16,-1,1,-1.8369701987210297e-16,-759.9999999999999,940) translate(133.103515625 26.5478515625)"/><path d="M-580 82.5c0 23.47-17.9 42.5-40 42.5s-40-19.03-40-42.5S-642.1 40-620 40s40 19.03 40 42.5z" stroke="#000" stroke-width="2" fill="#fff"/><use xlink:href="#e" transform="matrix(1,0,0,1,-660,127) translate(19.9169921875 17.4375)"/><use xlink:href="#f" transform="matrix(1,0,0,1,-660,127) translate(15.66748046875 43.572656249999994)"/><use xlink:href="#g" transform="matrix(1,0,0,1,-660,127) translate(3.68798828125 69.70781249999999)"/><use xlink:href="#h" transform="matrix(1,0,0,1,-660,127) translate(35.77685546875 69.70781249999999)"/><use xlink:href="#i" transform="matrix(1,0,0,1,-660,127) translate(25.287109375 95.84296875)"/><use xlink:href="#j" transform="matrix(1,0,0,1,-660,127) translate(12.87255859375 121.97812499999999)"/><path d="M-240 309.5a8 8 0 0 1 8-8h144a8 8 0 0 1 8 8v104a8 8 0 0 1-8 8h-144a8 8 0 0 1-8-8z" stroke="#000" stroke-width="2" fill="#fff"/><use xlink:href="#k" transform="matrix(1,0,0,1,-240,301.5000419354835) translate(8.866328125000004 54.9375)"/><use xlink:href="#l" transform="matrix(1,0,0,1,-240,301.5000419354835) translate(76.12023437500001 54.9375)"/><use xlink:href="#i" transform="matrix(1,0,0,1,-240,301.5000419354835) translate(121.71789062500001 54.9375)"/><use xlink:href="#m" transform="matrix(1,0,0,1,-240,301.5000419354835) translate(60.12853515625 81.07265625)"/><path d="M-220 68a8 8 0 0 1 8-8h124a8 8 0 0 1 8 8v84a8 8 0 0 1-8 8h-124a8 8 0 0 1-8-8z" stroke="#000" stroke-width="2" fill="#fff"/><use xlink:href="#n" transform="matrix(1,0,0,1,-220,60) translate(35.07287109375 42.4375)"/><use xlink:href="#o" transform="matrix(1,0,0,1,-220,60) translate(63.83947265625 42.4375)"/><use xlink:href="#p" transform="matrix(1,0,0,1,-220,60) translate(83.89611328125 42.4375)"/><use xlink:href="#q" transform="matrix(1,0,0,1,-220,60) translate(42.09533203125 68.57265625)"/><path d="M840.25 388a8 8 0 0 1 8-8h144a8 8 0 0 1 8 8v104a8 8 0 0 1-8 8h-144a8 8 0 0 1-8-8z" stroke="#000" stroke-width="2" fill="#fff"/><use xlink:href="#r" transform="matrix(1,0,0,1,840.2500499999994,380) translate(22.366328124999995 66.1875)"/><use xlink:href="#s" transform="matrix(1,0,0,1,840.2500499999994,380) translate(95.0958203125 66.1875)"/><path d="M1001.75 440h41.95" stroke="#000" fill="none"/><path d="M1001.76 440.48h-.5v-.96h.5z" stroke="#000" stroke-width=".05"/><path d="M1058.47 440l-14.27 4.63v-9.26z" stroke="#000"/><path d="M1061.5 440l37.5-37.5 37.5 37.5-37.5 37.5zM1400 718a8 8 0 0 1 8-8h144a8 8 0 0 1 8 8v104a8 8 0 0 1-8 8h-144a8 8 0 0 1-8-8z" stroke="#000" stroke-width="2" fill="#fff"/><use xlink:href="#t" transform="matrix(1,0,0,1,1400,710) translate(5.051875000000004 66.1875)"/><use xlink:href="#u" transform="matrix(1,0,0,1,1400,710) translate(44.5762890625 66.1875)"/><use xlink:href="#v" transform="matrix(1,0,0,1,1400,710) translate(70.6798046875 66.1875)"/><use xlink:href="#w" transform="matrix(1,0,0,1,1400,710) translate(92.2481640625 66.1875)"/><path d="M979 348a8 8 0 0 1 8-8h224a8 8 0 0 1 8 8v44a8 8 0 0 1-8 8H987a8 8 0 0 1-8-8z" fill="none"/><use xlink:href="#x" transform="matrix(1,0,0,1,979.0000499999994,340) translate(61.95703125 36.5478515625)"/><use xlink:href="#y" transform="matrix(1,0,0,1,979.0000499999994,340) translate(81.3544921875 36.5478515625)"/><use xlink:href="#z" transform="matrix(1,0,0,1,979.0000499999994,340) translate(128.96484375 36.5478515625)"/><path d="M1099 479.4V528a12 12 0 0 1-12 12H217.38" stroke="#000" fill="none"/><path d="M1099.47 479.43h-.94v-1l.47.48.47-.46z" stroke="#000" stroke-width=".05"/><path d="M202.62 540l14.26-4.63v9.26z" stroke="#000"/><use xlink:href="#A" transform="matrix(1,0,0,1,660.3091301357791,544) translate(0.005000000000000782 17.4375)"/><path d="M60 498a8 8 0 0 1 8-8h124a8 8 0 0 1 8 8v84a8 8 0 0 1-8 8H68a8 8 0 0 1-8-8z" stroke="#000" stroke-width="2" fill="#fff"/><use xlink:href="#B" transform="matrix(1,0,0,1,60,490) translate(46.3096875 29.9375)"/><use xlink:href="#C" transform="matrix(1,0,0,1,60,490) translate(29.175410156249995 56.072656249999994)"/><use xlink:href="#D" transform="matrix(1,0,0,1,60,490) translate(44.4551953125 82.20781249999999)"/><path d="M1520 388a8 8 0 0 1 8-8h144a8 8 0 0 1 8 8v104a8 8 0 0 1-8 8h-144a8 8 0 0 1-8-8z" stroke="#000" stroke-width="2" fill="#fff"/><use xlink:href="#E" transform="matrix(1,0,0,1,1520,380) translate(21.817011718750003 39.9375)"/><use xlink:href="#F" transform="matrix(1,0,0,1,1520,380) translate(78.26037109375 39.9375)"/><use xlink:href="#G" transform="matrix(1,0,0,1,1520,380) translate(120.73791015625 39.9375)"/><use xlink:href="#H" transform="matrix(1,0,0,1,1520,380) translate(44.901484374999995 66.07265625)"/><use xlink:href="#I" transform="matrix(1,0,0,1,1520,380) translate(14.223261718750004 92.20781249999999)"/><path d="M1799 440c0 16.57-13.43 30-30 30s-30-13.43-30-30 13.43-30 30-30 30 13.43 30 30z" stroke="#000" stroke-width="6" fill="#fff"/><use xlink:href="#J" transform="matrix(1,0,0,1,1739.0000499999992,472) translate(16.5703125 17.4375)"/><use xlink:href="#K" transform="matrix(1,0,0,1,1739.0000499999992,472) translate(-2.38330078125 43.572656249999994)"/><path d="M1681.5 440h38.1" stroke="#000" fill="none"/><path d="M1681.5 440.48h-.5v-.96h.5z" stroke="#000" stroke-width=".05"/><path d="M1734.38 440l-14.27 4.63v-9.26z" stroke="#000"/><path d="M0 68a8 8 0 0 1 8-8h124a8 8 0 0 1 8 8v84a8 8 0 0 1-8 8H8a8 8 0 0 1-8-8z" stroke="#000" stroke-width="2" fill="#fff"/><use xlink:href="#L" transform="matrix(1,0,0,1,0,60) translate(44.23986328125 45.5625)"/><use xlink:href="#M" transform="matrix(1,0,0,1,0,60) translate(31.201289062499995 67.341796875)"/><path d="M70 161.5V213a12 12 0 0 0 12 12h136a12 12 0 0 1 12 12v35.62" stroke="#000" fill="none"/><path d="M70.47 161.5h-.94v-.5h.94z" stroke="#000" stroke-width=".05"/><path d="M230 287.38l-4.63-14.26h9.26z" stroke="#000"/><path d="M160 298a8 8 0 0 1 8-8h124a8 8 0 0 1 8 8v84a8 8 0 0 1-8 8H168a8 8 0 0 1-8-8z" stroke="#000" stroke-width="2" fill="#fff"/><use xlink:href="#N" transform="matrix(1,0,0,1,160,290) translate(15.187617187500004 45.5625)"/><use xlink:href="#O" transform="matrix(1,0,0,1,160,290) translate(67.6407421875 45.5625)"/><use xlink:href="#P" transform="matrix(1,0,0,1,160,290) translate(48.23888671875 67.341796875)"/><path d="M301.5 340h64a12 12 0 0 0 12-12v-95.2" stroke="#000" fill="none"/><path d="M301.5 340.48h-.5v-.96h.5z" stroke="#000" stroke-width=".05"/><path d="M377.5 218.03l4.63 14.27h-9.26z" stroke="#000"/><path d="M340 177.5l37.5-37.5 37.5 37.5-37.5 37.5z" stroke="#000" stroke-width="2" fill="#fff"/><path d="M377.5 138.1V97.37" stroke="#000" fill="none"/><path d="M377.98 139.06l-.48-.47-.48.46v-1h.96z" stroke="#000" stroke-width=".05"/><path d="M377.5 82.62l4.63 14.26h-9.26z" stroke="#000"/><path d="M297.5-32a8 8 0 0 1 8-8h144a8 8 0 0 1 8 8V72a8 8 0 0 1-8 8h-144a8 8 0 0 1-8-8z" stroke="#000" stroke-width="2" fill="#fff"/><use xlink:href="#Q" transform="matrix(1,0,0,1,297.5,-40) translate(27.279414062500003 66.1875)"/><use xlink:href="#R" transform="matrix(1,0,0,1,297.5,-40) translate(83.8721875 66.1875)"/><path d="M416.9 177.5h105.72" stroke="#000" fill="none"/><path d="M416.93 177.97h-1l.48-.47-.46-.47h1z" stroke="#000" stroke-width=".05"/><path d="M537.38 177.5l-14.26 4.63v-9.26z" stroke="#000"/><path d="M540 125.5a8 8 0 0 1 8-8h144a8 8 0 0 1 8 8v104a8 8 0 0 1-8 8H548a8 8 0 0 1-8-8z" stroke="#000" stroke-width="2" fill="#fff"/><use xlink:href="#Q" transform="matrix(1,0,0,1,540,117.5) translate(13.709101562500004 66.1875)"/><use xlink:href="#S" transform="matrix(1,0,0,1,540,117.5) translate(70.301875 66.1875)"/><path d="M701.5 177.5h56.63a12 12 0 0 1 12 12V428a12 12 0 0 0 12 12h40.74" stroke="#000" fill="none"/><path d="M701.5 177.97h-.5v-.94h.5z" stroke="#000" stroke-width=".05"/><path d="M837.63 440l-14.26 4.63v-9.26z" stroke="#000"/><path d="M-480 333a8 8 0 0 1 8-8h124a8 8 0 0 1 8 8v69a8 8 0 0 1-8 8h-124a8 8 0 0 1-8-8z" stroke="#000" stroke-width="2" fill="#fff"/><use xlink:href="#k" transform="matrix(1,0,0,1,-480,325) translate(20.008417968749995 36.03125)"/><use xlink:href="#T" transform="matrix(1,0,0,1,-480,325) translate(87.26232421875 36.03125)"/><use xlink:href="#U" transform="matrix(1,0,0,1,-480,325) translate(20.487421874999995 62.166406249999994)"/><use xlink:href="#m" transform="matrix(1,0,0,1,-480,325) translate(79.7696484375 62.166406249999994)"/><path d="M-160 300V177.38" stroke="#000" fill="none"/><path d="M-159.53 300.5h-.94v-.5h.94z" stroke="#000" stroke-width=".05"/><path d="M-160 162.62l4.63 14.26h-9.26z" stroke="#000"/><path d="M-380 500c0 16.57-13.43 30-30 30s-30-13.43-30-30 13.43-30 30-30 30 13.43 30 30z" stroke="#000" stroke-width="6" fill="#fff"/><use xlink:href="#V" transform="matrix(1,0,0,1,-440,532) translate(6.19921875 17.4375)"/><path d="M-78.5 110h61.12" stroke="#000" fill="none"/><path d="M-78.5 110.47h-.5v-.94h.5z" stroke="#000" stroke-width=".05"/><path d="M-2.62 110l-14.26 4.64v-9.28z" stroke="#000"/><path d="M58.5 540H-148a12 12 0 0 1-12-12v-89.12" stroke="#000" fill="none"/><path d="M59 540.48h-.5v-.96h.5z" stroke="#000" stroke-width=".05"/><path d="M-160 424.12l4.63 14.26h-9.26z" stroke="#000"/><path d="M-700 333a8 8 0 0 1 8-8h144a8 8 0 0 1 8 8v104a8 8 0 0 1-8 8h-144a8 8 0 0 1-8-8z" stroke="#000" stroke-width="2" fill="#fff"/><use xlink:href="#W" transform="matrix(1,0,0,1,-700,325) translate(24.198847656250003 54.9375)"/><use xlink:href="#X" transform="matrix(1,0,0,1,-700,325) translate(61.23595703125 54.9375)"/><use xlink:href="#Y" transform="matrix(1,0,0,1,-700,325) translate(57.10509765625 81.07265625)"/><path d="M-620 126.5v181.12" stroke="#000" fill="none"/><path d="M-620.02 126h.5v.5h-.96v-.53z" stroke="#000" stroke-width=".05"/><path d="M-620 322.38l-4.63-14.26h9.26z" stroke="#000"/><path d="M-620 446.5v196.12" stroke="#000" fill="none"/><path d="M-619.52 446.5h-.96v-.5h.96z" stroke="#000" stroke-width=".05"/><path d="M-620 657.38l-4.63-14.26h9.26z" stroke="#000"/><path d="M-700 668a8 8 0 0 1 8-8h144a8 8 0 0 1 8 8v104a8 8 0 0 1-8 8h-144a8 8 0 0 1-8-8z" stroke="#000" stroke-width="2" fill="#fff"/><use xlink:href="#Z" transform="matrix(1,0,0,1,-700,660) translate(24.932734374999995 66.1875)"/><use xlink:href="#aa" transform="matrix(1,0,0,1,-700,660) translate(97.6622265625 66.1875)"/><path d="M-538.5 720h60.7" stroke="#000" fill="none"/><path d="M-538.5 720.48h-.5v-.96h.5z" stroke="#000" stroke-width=".05"/><path d="M-463.03 720l-14.27 4.63v-9.26z" stroke="#000"/><path d="M-460 720l37.5-37.5L-385 720l-37.5 37.5z" stroke="#000" stroke-width="2" fill="#fff"/><g><use xlink:href="#ab" transform="matrix(1,0,0,1,-460,757.5) translate(17.4169921875 17.4375)"/><use xlink:href="#ac" transform="matrix(1,0,0,1,-460,757.5) translate(22.3740234375 43.572656249999994)"/><use xlink:href="#ad" transform="matrix(1,0,0,1,-460,757.5) translate(9.9814453125 69.70781249999999)"/></g><path d="M-410 411.5v39.1" stroke="#000" fill="none"/><path d="M-409.52 411.5h-.96v-.5h.96z" stroke="#000" stroke-width=".05"/><path d="M-410 465.38l-4.63-14.27h9.26z" stroke="#000"/><path d="M-520.52 629.07l.14 1.82.42 1.75.7 1.67.94 1.54 1.17 1.37 1.38 1.18 1.54.95 1.67.7 1.76.42 1.82.14h74.5l1.93.16 1.9.46 1.8.75 1.68 1.02 1.5 1.26 1.26 1.5 1.02 1.66.75 1.8.45 1.9.16 1.95v27.52h-.96v-27.5l-.14-1.82-.42-1.75-.7-1.68-.94-1.54-1.17-1.36-1.38-1.18-1.54-.94-1.67-.7-1.76-.42-1.82-.14h-74.5l-1.93-.15-1.9-.45-1.8-.75-1.68-1.02-1.5-1.27-1.26-1.48-1.02-1.67-.75-1.8-.45-1.9-.15-1.95v-64.67h.95zm23.14-261.1h-11.6l-1.82.15-1.76.42-1.67.7-1.54.94-1.38 1.17-1.17 1.38-.95 1.54-.7 1.67-.4 1.76-.15 1.82v163.13h-.96V379.48l.16-1.93.45-1.9.75-1.8 1.03-1.68 1.28-1.5 1.5-1.26 1.66-1.02 1.8-.75 1.9-.45 1.94-.16h11.64z" stroke="#000" stroke-width=".05"/><path d="M-422.02 681.56l-.48-.47-.48.46v-1h.96z"/><path stroke="#000" stroke-width=".05"/><path d="M-482.62 367.5l-14.26 4.63v-9.26z"/><path d="M-481.08 367.5l-16.28 5.3v-10.6zm-15.33 3.98l12.25-3.98-12.26-3.98z" stroke="#000" stroke-width=".05"/><g><use xlink:href="#ae" transform="matrix(1,0,0,1,-533.177196093751,542.653219781314) translate(0.005000000000000782 17.4375)"/></g><path d="M-311.82 708.02l-.15 1.93-.46 1.9-.75 1.8-1.02 1.68-1.27 1.5-1.5 1.26-1.66 1.02-1.8.75-1.9.45-1.94.15h-58.82v-.95h58.8l1.8-.14 1.77-.42 1.67-.7 1.54-.94 1.38-1.17 1.17-1.38.95-1.54.7-1.67.4-1.76.15-1.82v-123.2h.95zm54.44-346.04h-42.9l-1.82.14-1.75.42-1.67.7-1.55.94-1.37 1.17-1.18 1.38-.94 1.54-.7 1.67-.42 1.76-.14 1.82V563h-.95V373.48l.15-1.93.46-1.9.75-1.8 1-1.68 1.28-1.5 1.5-1.26 1.66-1.02 1.8-.75 1.92-.45 1.93-.16h42.92z" stroke="#000" stroke-width=".05"/><path d="M-383.07 720.48h-1l.48-.48-.46-.48h1z"/><path stroke="#000" stroke-width=".05"/><path d="M-242.62 361.5l-14.26 4.63v-9.26z"/><path d="M-241.08 361.5l-16.28 5.3v-10.6zm-15.33 3.98l12.24-3.98-12.25-3.98z" stroke="#000" stroke-width=".05"/><g><use xlink:href="#af" transform="matrix(1,0,0,1,-327.7088838438137,562.9966477308361) translate(0.005000000000000782 17.4375)"/></g><path d="M1216.97 692.62h-.94V568.47h.94zm-10.52-252.94l1.9.45 1.8.75 1.68 1.03 1.5 1.28 1.26 1.5 1.02 1.66.75 1.8.45 1.9.15 1.94v94.7h-.94v-94.66l-.15-1.82-.42-1.76-.7-1.67-.94-1.54-1.17-1.38-1.38-1.17-1.54-.95-1.67-.7-1.76-.4-1.82-.15h-66.07v-.96h66.12z" stroke="#000" stroke-width=".05"/><path d="M1138.43 440.48h-1l.48-.48-.46-.48h1z"/><path stroke="#000" stroke-width=".05"/><path d="M1216.5 707.38l-4.63-14.26h9.27z"/><path d="M1216.5 708.92l-5.3-16.28h10.6zm-3.98-15.33l3.98 12.25 3.98-12.26z" stroke="#000" stroke-width=".05"/><g><use xlink:href="#af" transform="matrix(1,0,0,1,1201.0840343749994,546.6917367427734) translate(0.005000000000000782 17.4375)"/></g><path d="M1136.5 718a8 8 0 0 1 8-8h144a8 8 0 0 1 8 8v104a8 8 0 0 1-8 8h-144a8 8 0 0 1-8-8z" stroke="#000" stroke-width="2" fill="#fff"/><g><use xlink:href="#Z" transform="matrix(1,0,0,1,1136.5000499999994,710) translate(12.821406250000004 66.1875)"/><use xlink:href="#ag" transform="matrix(1,0,0,1,1136.5000499999994,710) translate(85.55089843750001 66.1875)"/><use xlink:href="#ah" transform="matrix(1,0,0,1,1136.5000499999994,710) translate(126.14757812500001 66.1875)"/></g><path d="M1298 770h84.62" stroke="#000" fill="none"/><path d="M1298 770.48h-.5v-.96h.5z" stroke="#000" stroke-width=".05"/><path d="M1397.38 770l-14.26 4.63v-9.26z" stroke="#000"/><path d="M1480 708.5V452a12 12 0 0 1 12-12h10.62" stroke="#000" fill="none"/><path d="M1480.47 709h-.94v-.5h.94z" stroke="#000" stroke-width=".05"/><path d="M1517.38 440l-14.26 4.63v-9.26z" stroke="#000"/><defs><path fill="#282c33" d="M180 0v-1490h510c348 0 508 209 508 474 0 266-160 477-507 477H370V0H180zm190-706h312c236 0 327-133 327-310 0-176-91-307-329-307H370v617" id="ai"/><path fill="#282c33" d="M613 24c-304 0-509-231-509-576 0-350 205-580 509-580 305 0 511 230 511 580 0 345-206 576-511 576zm0-161c226 0 329-195 329-415 0-222-103-419-329-419-223 0-326 196-326 419 0 220 103 415 326 415" id="aj"/><path fill="#282c33" d="M338-1490V0H158v-1490h180" id="ak"/><g id="a"><use transform="matrix(0.0087890625,0,0,0.0087890625,0,0)" xlink:href="#ai"/><use transform="matrix(0.0087890625,0,0,0.0087890625,11.3994140625,0)" xlink:href="#aj"/><use transform="matrix(0.0087890625,0,0,0.0087890625,22.1923828125,0)" xlink:href="#aj"/><use transform="matrix(0.0087890625,0,0,0.0087890625,32.9853515625,0)" xlink:href="#ak"/></g><path fill="#282c33" d="M763 24c-353 0-583-224-583-531v-983h190v968c0 214 149 370 393 370 243 0 391-156 391-370v-968h190v983c0 307-230 531-581 531" id="al"/><path fill="#282c33" d="M538 24C308 24 148-78 108-271l171-41c32 123 123 178 257 178 156 0 256-77 256-169 0-77-54-128-164-154l-186-44c-203-48-300-148-300-305 0-192 176-326 414-326 230 0 351 112 402 269l-163 42c-31-80-94-158-238-158-133 0-233 69-233 162 0 83 57 129 188 160l169 40c203 48 298 149 298 302 0 196-179 339-441 339" id="am"/><path fill="#282c33" d="M628 24c-324 0-524-230-524-574 0-343 198-582 503-582 237 0 487 146 487 559v75H286c9 234 145 362 343 362 132 0 231-58 273-172l174 48C1024-91 857 24 628 24zM287-650h624c-17-190-120-322-304-322-192 0-309 151-320 322" id="an"/><path fill="#282c33" d="M158 0v-1118h174v172h12c41-113 157-188 290-188 26 0 70 2 91 3v181c-11-2-60-10-108-10-161 0-279 109-279 260V0H158" id="ao"/><g id="b"><use transform="matrix(0.0087890625,0,0,0.0087890625,0,0)" xlink:href="#al"/><use transform="matrix(0.0087890625,0,0,0.0087890625,13.39453125,0)" xlink:href="#am"/><use transform="matrix(0.0087890625,0,0,0.0087890625,22.8955078125,0)" xlink:href="#an"/><use transform="matrix(0.0087890625,0,0,0.0087890625,33.3896484375,0)" xlink:href="#ao"/></g><path fill="#282c33" d="M180 0v-1490h901v168H370v510h643v168H370V0H180" id="ap"/><path fill="#282c33" d="M338-670V0H158v-1118h173l1 207c72-158 192-221 342-221 226 0 378 139 378 422V0H872v-695c0-172-96-275-252-275-161 0-282 109-282 300" id="aq"/><path fill="#282c33" d="M598-1118v154H368v674c0 100 37 144 132 144 23 0 62-6 92-12L629-6c-37 13-88 20-134 20-193 0-307-107-307-290v-688H20v-154h168v-266h180v266h230" id="ar"/><path fill="#282c33" d="M577 24c-279 0-473-224-473-580 0-354 195-576 474-576 218 0 287 134 324 193h14v-551h180V0H922v-173h-20C865-111 790 24 577 24zm27-161c203 0 314-172 314-421 0-247-108-413-314-413-212 0-317 181-317 413 0 235 108 421 317 421" id="as"/><g id="c"><use transform="matrix(0.0087890625,0,0,0.0087890625,0,0)" xlink:href="#ap"/><use transform="matrix(0.0087890625,0,0,0.0087890625,10.0986328125,0)" xlink:href="#ao"/><use transform="matrix(0.0087890625,0,0,0.0087890625,16.576171875,0)" xlink:href="#aj"/><use transform="matrix(0.0087890625,0,0,0.0087890625,27.369140625,0)" xlink:href="#aq"/><use transform="matrix(0.0087890625,0,0,0.0087890625,38.00390625,0)" xlink:href="#ar"/><use transform="matrix(0.0087890625,0,0,0.0087890625,43.716796875,0)" xlink:href="#an"/><use transform="matrix(0.0087890625,0,0,0.0087890625,54.2109375,0)" xlink:href="#aq"/><use transform="matrix(0.0087890625,0,0,0.0087890625,64.845703125,0)" xlink:href="#as"/></g><path fill="#282c33" d="M180 0v-1490h528c311 0 458 177 458 395 0 191-114 278-244 313v14c139 9 302 137 302 371 0 225-148 397-499 397H180zm190-168h350c232 0 321-102 321-231 0-149-120-277-311-277H370v508zm0-668h328c160 0 286-101 286-255 0-129-87-231-280-231H370v486" id="at"/><path fill="#282c33" d="M471 26C259 26 90-98 90-318c0-256 228-303 435-329 202-27 287-16 287-108 0-139-79-219-234-219-161 0-248 86-283 164l-173-57c86-203 278-265 451-265 150 0 419 46 419 395V0H815v-152h-12C765-73 660 26 471 26zm31-159c199 0 310-134 310-271v-155c-30 35-226 55-295 64-131 17-246 59-246 186 0 116 97 176 231 176" id="au"/><path fill="#282c33" d="M613 24c-304 0-509-231-509-576 0-350 205-580 509-580 216 0 392 114 453 309l-173 49c-33-115-133-197-280-197-223 0-326 196-326 419 0 220 103 415 326 415 150 0 252-85 285-206l172 49C1010-95 832 24 613 24" id="av"/><path fill="#282c33" d="M158 0v-1490h180v865h22l478-493h223L593-638 1096 0H865L456-523 338-412V0H158" id="aw"/><g id="d"><use transform="matrix(0.0087890625,0,0,0.0087890625,0,0)" xlink:href="#at"/><use transform="matrix(0.0087890625,0,0,0.0087890625,11.77734375,0)" xlink:href="#au"/><use transform="matrix(0.0087890625,0,0,0.0087890625,21.884765625,0)" xlink:href="#av"/><use transform="matrix(0.0087890625,0,0,0.0087890625,32.16796875,0)" xlink:href="#aw"/><use transform="matrix(0.0087890625,0,0,0.0087890625,41.642578125,0)" xlink:href="#an"/><use transform="matrix(0.0087890625,0,0,0.0087890625,52.13671875,0)" xlink:href="#aq"/><use transform="matrix(0.0087890625,0,0,0.0087890625,62.771484375,0)" xlink:href="#as"/></g><g id="e"><use transform="matrix(0.0087890625,0,0,0.0087890625,0,0)" xlink:href="#al"/><use transform="matrix(0.0087890625,0,0,0.0087890625,13.39453125,0)" xlink:href="#am"/><use transform="matrix(0.0087890625,0,0,0.0087890625,22.8955078125,0)" xlink:href="#an"/><use transform="matrix(0.0087890625,0,0,0.0087890625,33.3896484375,0)" xlink:href="#ao"/></g><path fill="#282c33" d="M158 0v-1118h180V0H158zm91-1301c-68 0-125-53-125-119s57-119 125-119c69 0 126 53 126 119s-57 119-126 119" id="ax"/><g id="f"><use transform="matrix(0.0087890625,0,0,0.0087890625,0,0)" xlink:href="#av"/><use transform="matrix(0.0087890625,0,0,0.0087890625,10.283203125,0)" xlink:href="#ak"/><use transform="matrix(0.0087890625,0,0,0.0087890625,14.642578125,0)" xlink:href="#ax"/><use transform="matrix(0.0087890625,0,0,0.0087890625,19.001953125,0)" xlink:href="#av"/><use transform="matrix(0.0087890625,0,0,0.0087890625,29.28515625,0)" xlink:href="#aw"/><use transform="matrix(0.0087890625,0,0,0.0087890625,39.1640625,0)" xlink:href="#am"/></g><path fill="#282c33" d="M338-670V0H158v-1490h180v566c73-149 190-208 336-208 226 0 379 139 379 422V0H872v-695c0-172-96-275-252-275-161 0-282 109-282 300" id="ay"/><g id="g"><use transform="matrix(0.0087890625,0,0,0.0087890625,0,0)" xlink:href="#ar"/><use transform="matrix(0.0087890625,0,0,0.0087890625,5.888671875,0)" xlink:href="#ay"/><use transform="matrix(0.0087890625,0,0,0.0087890625,16.5322265625,0)" xlink:href="#an"/></g><path fill="#282c33" d="M232-923l-22-567h194l-22 567H232zm340 0l-22-567h194l-22 567H572" id="az"/><g id="h"><use transform="matrix(0.0087890625,0,0,0.0087890625,0,0)" xlink:href="#az"/><use transform="matrix(0.0087890625,0,0,0.0087890625,8.384765625,0)" xlink:href="#au"/><use transform="matrix(0.0087890625,0,0,0.0087890625,18.4921875,0)" xlink:href="#as"/><use transform="matrix(0.0087890625,0,0,0.0087890625,29.513671875,0)" xlink:href="#as"/></g><g id="i"><use transform="matrix(0.0087890625,0,0,0.0087890625,0,0)" xlink:href="#ak"/><use transform="matrix(0.0087890625,0,0,0.0087890625,4.359375,0)" xlink:href="#aj"/><use transform="matrix(0.0087890625,0,0,0.0087890625,15.15234375,0)" xlink:href="#ar"/><use transform="matrix(0.0087890625,0,0,0.0087890625,21.041015625,0)" xlink:href="#az"/></g><path fill="#282c33" d="M677 24c-213 0-288-135-325-197h-20V0H158v-1490h180v551h14c37-59 106-193 324-193 279 0 474 222 474 576 0 356-194 580-473 580zm-27-161c209 0 317-186 317-421 0-232-105-413-317-413-206 0-314 166-314 413 0 249 111 421 314 421" id="aA"/><path fill="#282c33" d="M537 14c-226 0-379-139-379-422v-710h180v695c0 172 97 275 253 275 160 0 281-109 281-300v-670h181V0H879v-209C806-46 684 14 537 14" id="aB"/><g id="j"><use transform="matrix(0.0087890625,0,0,0.0087890625,0,0)" xlink:href="#aA"/><use transform="matrix(0.0087890625,0,0,0.0087890625,11.021484375,0)" xlink:href="#aB"/><use transform="matrix(0.0087890625,0,0,0.0087890625,21.6650390625,0)" xlink:href="#ar"/><use transform="matrix(0.0087890625,0,0,0.0087890625,27.1142578125,0)" xlink:href="#ar"/><use transform="matrix(0.0087890625,0,0,0.0087890625,32.8271484375,0)" xlink:href="#aj"/><use transform="matrix(0.0087890625,0,0,0.0087890625,43.6201171875,0)" xlink:href="#aq"/></g><path fill="#282c33" d="M645 0H180v-1490h484c435 0 692 280 692 742 0 466-257 748-711 748zM370-168h263c363 0 539-218 539-580 0-358-176-574-521-574H370v1154" id="aC"/><path fill="#282c33" d="M158 418v-1536h174v179h20c37-59 106-193 324-193 279 0 474 222 474 576 0 356-194 580-473 580-213 0-288-135-325-197h-14v591H158zm492-555c209 0 317-186 317-421 0-232-105-413-317-413-206 0-314 166-314 413 0 249 111 421 314 421" id="aD"/><path fill="#282c33" d="M140 405l46-156c120 36 205 19 263-150l32-93L54-1118h197c107 313 237 620 324 950 87-331 219-637 326-950h196L606 167c-68 178-176 259-334 259-64 0-113-12-132-21" id="aE"/><g id="k"><use transform="matrix(0.0087890625,0,0,0.0087890625,0,0)" xlink:href="#aC"/><use transform="matrix(0.0087890625,0,0,0.0087890625,12.990234375,0)" xlink:href="#ax"/><use transform="matrix(0.0087890625,0,0,0.0087890625,17.349609375,0)" xlink:href="#am"/><use transform="matrix(0.0087890625,0,0,0.0087890625,26.8505859375,0)" xlink:href="#aD"/><use transform="matrix(0.0087890625,0,0,0.0087890625,37.8720703125,0)" xlink:href="#ak"/><use transform="matrix(0.0087890625,0,0,0.0087890625,42.2314453125,0)" xlink:href="#au"/><use transform="matrix(0.0087890625,0,0,0.0087890625,52.0751953125,0)" xlink:href="#aE"/></g><g id="l"><use transform="matrix(0.0087890625,0,0,0.0087890625,0,0)" xlink:href="#az"/><use transform="matrix(0.0087890625,0,0,0.0087890625,8.384765625,0)" xlink:href="#au"/><use transform="matrix(0.0087890625,0,0,0.0087890625,18.4921875,0)" xlink:href="#as"/><use transform="matrix(0.0087890625,0,0,0.0087890625,29.513671875,0)" xlink:href="#as"/></g><path fill="#282c33" d="M678-1118v154H420V0H240v-964H20v-154h220v-149c0-194 155-293 318-293 85 0 141 18 168 30l-50 154c-19-6-47-17-97-17-111 0-159 58-159 166v109h258" id="aF"/><path fill="#282c33" d="M158 0v-1118h175l1 205c55-151 181-225 313-225 147 0 245 90 285 228 53-141 190-228 352-228 194 0 352 125 352 384V0h-181v-749c0-161-105-225-225-225-151 0-243 103-243 244V0H807v-767c0-124-93-207-219-207-131 0-250 92-250 270V0H158" id="aG"/><g id="m"><use transform="matrix(0.0087890625,0,0,0.0087890625,0,0)" xlink:href="#aF"/><use transform="matrix(0.0087890625,0,0,0.0087890625,6.134765625,0)" xlink:href="#aj"/><use transform="matrix(0.0087890625,0,0,0.0087890625,16.927734375,0)" xlink:href="#ao"/><use transform="matrix(0.0087890625,0,0,0.0087890625,23.9853515625,0)" xlink:href="#aG"/></g><g id="n"><use transform="matrix(0.0087890625,0,0,0.0087890625,0,0)" xlink:href="#ap"/><use transform="matrix(0.0087890625,0,0,0.0087890625,10.6259765625,0)" xlink:href="#ax"/><use transform="matrix(0.0087890625,0,0,0.0087890625,14.9853515625,0)" xlink:href="#ak"/><use transform="matrix(0.0087890625,0,0,0.0087890625,19.3447265625,0)" xlink:href="#ak"/></g><g id="o"><use transform="matrix(0.0087890625,0,0,0.0087890625,0,0)" xlink:href="#ax"/><use transform="matrix(0.0087890625,0,0,0.0087890625,4.359375,0)" xlink:href="#aq"/></g><g id="p"><use transform="matrix(0.0087890625,0,0,0.0087890625,0,0)" xlink:href="#ak"/><use transform="matrix(0.0087890625,0,0,0.0087890625,4.359375,0)" xlink:href="#aj"/><use transform="matrix(0.0087890625,0,0,0.0087890625,15.15234375,0)" xlink:href="#ar"/></g><g id="q"><use transform="matrix(0.0087890625,0,0,0.0087890625,0,0)" xlink:href="#as"/><use transform="matrix(0.0087890625,0,0,0.0087890625,11.021484375,0)" xlink:href="#an"/><use transform="matrix(0.0087890625,0,0,0.0087890625,21.515625,0)" xlink:href="#ar"/><use transform="matrix(0.0087890625,0,0,0.0087890625,27.4921875,0)" xlink:href="#au"/><use transform="matrix(0.0087890625,0,0,0.0087890625,37.599609375,0)" xlink:href="#ax"/><use transform="matrix(0.0087890625,0,0,0.0087890625,41.958984375,0)" xlink:href="#ak"/><use transform="matrix(0.0087890625,0,0,0.0087890625,46.318359375,0)" xlink:href="#am"/></g><path fill="#282c33" d="M600 0L52-1490h200c166 485 304 806 458 1336 156-533 285-846 449-1336h202L819 0H600" id="aH"/><g id="r"><use transform="matrix(0.0087890625,0,0,0.0087890625,0,0)" xlink:href="#aH"/><use transform="matrix(0.0087890625,0,0,0.0087890625,11.5048828125,0)" xlink:href="#au"/><use transform="matrix(0.0087890625,0,0,0.0087890625,21.6123046875,0)" xlink:href="#ak"/><use transform="matrix(0.0087890625,0,0,0.0087890625,25.9716796875,0)" xlink:href="#ax"/><use transform="matrix(0.0087890625,0,0,0.0087890625,30.3310546875,0)" xlink:href="#as"/><use transform="matrix(0.0087890625,0,0,0.0087890625,41.3525390625,0)" xlink:href="#au"/><use transform="matrix(0.0087890625,0,0,0.0087890625,51.4599609375,0)" xlink:href="#ar"/><use transform="matrix(0.0087890625,0,0,0.0087890625,57.1728515625,0)" xlink:href="#an"/></g><g id="s"><use transform="matrix(0.0087890625,0,0,0.0087890625,0,0)" xlink:href="#ax"/><use transform="matrix(0.0087890625,0,0,0.0087890625,4.359375,0)" xlink:href="#aq"/><use transform="matrix(0.0087890625,0,0,0.0087890625,14.994140625,0)" xlink:href="#aD"/><use transform="matrix(0.0087890625,0,0,0.0087890625,26.015625,0)" xlink:href="#aB"/><use transform="matrix(0.0087890625,0,0,0.0087890625,36.6591796875,0)" xlink:href="#ar"/></g><path fill="#282c33" d="M52 0l541-1490h220L1361 0h-200l-149-416H398L254 0H52zm404-582h497c-103-290-145-390-251-756-108 377-145 460-246 756" id="aI"/><g id="t"><use transform="matrix(0.0087890625,0,0,0.0087890625,0,0)" xlink:href="#aI"/><use transform="matrix(0.0087890625,0,0,0.0087890625,12.4189453125,0)" xlink:href="#as"/><use transform="matrix(0.0087890625,0,0,0.0087890625,23.4404296875,0)" xlink:href="#as"/></g><g id="u"><use transform="matrix(0.0087890625,0,0,0.0087890625,0,0)" xlink:href="#ak"/><use transform="matrix(0.0087890625,0,0,0.0087890625,4.359375,0)" xlink:href="#aj"/><use transform="matrix(0.0087890625,0,0,0.0087890625,15.15234375,0)" xlink:href="#ar"/></g><g id="v"><use transform="matrix(0.0087890625,0,0,0.0087890625,0,0)" xlink:href="#ar"/><use transform="matrix(0.0087890625,0,0,0.0087890625,5.712890625,0)" xlink:href="#aj"/></g><g id="w"><use transform="matrix(0.0087890625,0,0,0.0087890625,0,0)" xlink:href="#au"/><use transform="matrix(0.0087890625,0,0,0.0087890625,10.107421875,0)" xlink:href="#aB"/><use transform="matrix(0.0087890625,0,0,0.0087890625,20.7509765625,0)" xlink:href="#av"/><use transform="matrix(0.0087890625,0,0,0.0087890625,31.0341796875,0)" xlink:href="#ar"/><use transform="matrix(0.0087890625,0,0,0.0087890625,36.9228515625,0)" xlink:href="#ax"/><use transform="matrix(0.0087890625,0,0,0.0087890625,41.2822265625,0)" xlink:href="#aj"/><use transform="matrix(0.0087890625,0,0,0.0087890625,52.0751953125,0)" xlink:href="#aq"/></g><path fill="#282c33" d="M370-1490V0H180v-1490h190" id="aJ"/><g id="x"><use transform="matrix(0.0087890625,0,0,0.0087890625,0,0)" xlink:href="#aJ"/><use transform="matrix(0.0087890625,0,0,0.0087890625,4.833984375,0)" xlink:href="#am"/></g><g id="y"><use transform="matrix(0.0087890625,0,0,0.0087890625,0,0)" xlink:href="#ax"/><use transform="matrix(0.0087890625,0,0,0.0087890625,4.359375,0)" xlink:href="#aq"/><use transform="matrix(0.0087890625,0,0,0.0087890625,14.994140625,0)" xlink:href="#aD"/><use transform="matrix(0.0087890625,0,0,0.0087890625,26.015625,0)" xlink:href="#aB"/><use transform="matrix(0.0087890625,0,0,0.0087890625,36.6591796875,0)" xlink:href="#ar"/></g><path fill="#282c33" d="M481 0L54-1118h197c107 314 236 620 325 951 87-331 217-637 324-951h197L670 0H481" id="aK"/><path fill="#282c33" d="M383-449c-3-277 82-343 222-425 88-53 156-134 156-250 0-139-108-227-243-227-118 0-235 70-246 236H82c10-251 200-395 436-395 259 0 427 165 427 393 0 161-74 273-203 352-132 80-180 132-178 316H383zm93 462c-75 0-135-60-135-134 0-75 60-135 135-135 74 0 134 60 134 135 0 74-60 134-134 134" id="aL"/><g id="z"><use transform="matrix(0.0087890625,0,0,0.0087890625,0,0)" xlink:href="#aK"/><use transform="matrix(0.0087890625,0,0,0.0087890625,10.0283203125,0)" xlink:href="#au"/><use transform="matrix(0.0087890625,0,0,0.0087890625,20.1357421875,0)" xlink:href="#ak"/><use transform="matrix(0.0087890625,0,0,0.0087890625,24.4951171875,0)" xlink:href="#ax"/><use transform="matrix(0.0087890625,0,0,0.0087890625,28.8544921875,0)" xlink:href="#as"/><use transform="matrix(0.0087890625,0,0,0.0087890625,39.8759765625,0)" xlink:href="#aL"/></g><path fill="#282c33" d="M180 0v-1490h224l606 953c40 63 108 177 176 312-27-437-7-821-13-1265h190V0h-226C860-448 622-778 356-1262c27 476 11 792 15 1262H180" id="aM"/><g id="A"><use transform="matrix(0.0087890625,0,0,0.0087890625,0,0)" xlink:href="#aM"/><use transform="matrix(0.0087890625,0,0,0.0087890625,13.5615234375,0)" xlink:href="#aj"/></g><path fill="#282c33" d="M657 26c-323 0-524-166-541-416h195c15 169 171 246 346 246 202 0 356-106 356-265 5-203-294-238-475-293-239-73-380-191-380-389 0-252 224-419 512-419 294 0 499 171 508 396H992c-17-145-151-228-328-228-193 0-321 102-321 242 0 156 175 211 284 241l149 41c160 44 422 134 422 412 0 244-197 432-541 432" id="aN"/><path fill="#282c33" d="M409 0L70-1118h191c89 329 165 560 243 925 75-353 154-601 240-925h192c85 325 161 564 235 922 77-354 157-598 244-922h191L1267 0h-179c-86-307-176-590-250-913C763-588 675-308 588 0H409" id="aO"/><g id="B"><use transform="matrix(0.0087890625,0,0,0.0087890625,0,0)" xlink:href="#aN"/><use transform="matrix(0.0087890625,0,0,0.0087890625,11.548828125,0)" xlink:href="#ay"/><use transform="matrix(0.0087890625,0,0,0.0087890625,22.1923828125,0)" xlink:href="#aj"/><use transform="matrix(0.0087890625,0,0,0.0087890625,32.66015625,0)" xlink:href="#aO"/></g><g id="C"><use transform="matrix(0.0087890625,0,0,0.0087890625,0,0)" xlink:href="#aK"/><use transform="matrix(0.0087890625,0,0,0.0087890625,10.0283203125,0)" xlink:href="#au"/><use transform="matrix(0.0087890625,0,0,0.0087890625,20.1357421875,0)" xlink:href="#ak"/><use transform="matrix(0.0087890625,0,0,0.0087890625,24.4951171875,0)" xlink:href="#ax"/><use transform="matrix(0.0087890625,0,0,0.0087890625,28.8544921875,0)" xlink:href="#as"/><use transform="matrix(0.0087890625,0,0,0.0087890625,39.8759765625,0)" xlink:href="#au"/><use transform="matrix(0.0087890625,0,0,0.0087890625,49.9833984375,0)" xlink:href="#ar"/><use transform="matrix(0.0087890625,0,0,0.0087890625,55.8720703125,0)" xlink:href="#ax"/><use transform="matrix(0.0087890625,0,0,0.0087890625,60.2314453125,0)" xlink:href="#aj"/><use transform="matrix(0.0087890625,0,0,0.0087890625,71.0244140625,0)" xlink:href="#aq"/></g><g id="D"><use transform="matrix(0.0087890625,0,0,0.0087890625,0,0)" xlink:href="#an"/><use transform="matrix(0.0087890625,0,0,0.0087890625,10.494140625,0)" xlink:href="#ao"/><use transform="matrix(0.0087890625,0,0,0.0087890625,17.5517578125,0)" xlink:href="#ao"/><use transform="matrix(0.0087890625,0,0,0.0087890625,24.029296875,0)" xlink:href="#aj"/><use transform="matrix(0.0087890625,0,0,0.0087890625,34.822265625,0)" xlink:href="#ao"/><use transform="matrix(0.0087890625,0,0,0.0087890625,41.5986328125,0)" xlink:href="#am"/></g><g id="E"><use transform="matrix(0.0087890625,0,0,0.0087890625,0,0)" xlink:href="#aM"/><use transform="matrix(0.0087890625,0,0,0.0087890625,13.5615234375,0)" xlink:href="#aj"/><use transform="matrix(0.0087890625,0,0,0.0087890625,24.3544921875,0)" xlink:href="#ar"/><use transform="matrix(0.0087890625,0,0,0.0087890625,30.2431640625,0)" xlink:href="#ax"/><use transform="matrix(0.0087890625,0,0,0.0087890625,34.6025390625,0)" xlink:href="#aF"/><use transform="matrix(0.0087890625,0,0,0.0087890625,41.2646484375,0)" xlink:href="#aE"/></g><g id="F"><use transform="matrix(0.0087890625,0,0,0.0087890625,0,0)" xlink:href="#aB"/><use transform="matrix(0.0087890625,0,0,0.0087890625,10.6435546875,0)" xlink:href="#am"/><use transform="matrix(0.0087890625,0,0,0.0087890625,20.14453125,0)" xlink:href="#an"/><use transform="matrix(0.0087890625,0,0,0.0087890625,30.638671875,0)" xlink:href="#ao"/></g><g id="G"><use transform="matrix(0.0087890625,0,0,0.0087890625,0,0)" xlink:href="#aj"/><use transform="matrix(0.0087890625,0,0,0.0087890625,10.79296875,0)" xlink:href="#aF"/></g><g id="H"><use transform="matrix(0.0087890625,0,0,0.0087890625,0,0)" xlink:href="#am"/><use transform="matrix(0.0087890625,0,0,0.0087890625,9.5009765625,0)" xlink:href="#aB"/><use transform="matrix(0.0087890625,0,0,0.0087890625,20.14453125,0)" xlink:href="#av"/><use transform="matrix(0.0087890625,0,0,0.0087890625,30.427734375,0)" xlink:href="#av"/><use transform="matrix(0.0087890625,0,0,0.0087890625,40.7109375,0)" xlink:href="#an"/><use transform="matrix(0.0087890625,0,0,0.0087890625,51.205078125,0)" xlink:href="#am"/><use transform="matrix(0.0087890625,0,0,0.0087890625,60.7060546875,0)" xlink:href="#am"/></g><path fill="#282c33" d="M218-607c0-325 108-727 258-974h175c-155 315-250 682-250 974 0 265 78 531 250 886H476C306-10 218-315 218-607" id="aP"/><path fill="#282c33" d="M180 0v-1490h190c0 262 1 526-3 784 217-279 467-523 702-784h249L716-845 1319 0h-225L585-716 370-489V0H180" id="aQ"/><path fill="#282c33" d="M692-1560L212 224H46l480-1784h166" id="aR"/><path fill="#282c33" d="M180 0v-1490h510c348 0 508 194 508 460 0 198-88 351-276 417L1256 0h-220L726-579c-117 2-238 0-356 1V0H180zm190-747h312c235 0 327-108 327-283 0-177-92-293-329-293H370v576" id="aS"/><path fill="#282c33" d="M96 279C273-86 346-350 346-607c0-292-95-659-250-974h175c150 246 258 650 258 974 0 297-91 602-258 886H96" id="aT"/><g id="I"><use transform="matrix(0.0087890625,0,0,0.0087890625,0,0)" xlink:href="#aP"/><use transform="matrix(0.0087890625,0,0,0.0087890625,6.5654296875,0)" xlink:href="#aQ"/><use transform="matrix(0.0087890625,0,0,0.0087890625,18.6591796875,0)" xlink:href="#au"/><use transform="matrix(0.0087890625,0,0,0.0087890625,28.7666015625,0)" xlink:href="#aF"/><use transform="matrix(0.0087890625,0,0,0.0087890625,35.4287109375,0)" xlink:href="#aw"/><use transform="matrix(0.0087890625,0,0,0.0087890625,45.3076171875,0)" xlink:href="#au"/><use transform="matrix(0.0087890625,0,0,0.0087890625,55.4150390625,0)" xlink:href="#aR"/><use transform="matrix(0.0087890625,0,0,0.0087890625,61.9013671875,0)" xlink:href="#aS"/><use transform="matrix(0.0087890625,0,0,0.0087890625,73.3974609375,0)" xlink:href="#au"/><use transform="matrix(0.0087890625,0,0,0.0087890625,83.5048828125,0)" xlink:href="#aA"/><use transform="matrix(0.0087890625,0,0,0.0087890625,94.5263671875,0)" xlink:href="#aA"/><use transform="matrix(0.0087890625,0,0,0.0087890625,105.5478515625,0)" xlink:href="#ax"/><use transform="matrix(0.0087890625,0,0,0.0087890625,109.9072265625,0)" xlink:href="#ar"/><use transform="matrix(0.0087890625,0,0,0.0087890625,115.7958984375,0)" xlink:href="#aL"/><use transform="matrix(0.0087890625,0,0,0.0087890625,124.998046875,0)" xlink:href="#aT"/></g><path fill="#282c33" d="M180 0v-1490h190v1322h690V0H180" id="aU"/><g id="J"><use transform="matrix(0.0087890625,0,0,0.0087890625,0,0)" xlink:href="#aU"/><use transform="matrix(0.0087890625,0,0,0.0087890625,10.177734375,0)" xlink:href="#aj"/><use transform="matrix(0.0087890625,0,0,0.0087890625,20.970703125,0)" xlink:href="#ar"/></g><g id="K"><use transform="matrix(0.0087890625,0,0,0.0087890625,0,0)" xlink:href="#av"/><use transform="matrix(0.0087890625,0,0,0.0087890625,10.283203125,0)" xlink:href="#ao"/><use transform="matrix(0.0087890625,0,0,0.0087890625,16.7607421875,0)" xlink:href="#an"/><use transform="matrix(0.0087890625,0,0,0.0087890625,27.4306640625,0)" xlink:href="#au"/><use transform="matrix(0.0087890625,0,0,0.0087890625,37.5380859375,0)" xlink:href="#ar"/><use transform="matrix(0.0087890625,0,0,0.0087890625,43.2509765625,0)" xlink:href="#an"/><use transform="matrix(0.0087890625,0,0,0.0087890625,53.7451171875,0)" xlink:href="#as"/></g><path fill="#282c33" d="M783 20c-382 0-661-292-661-764 0-473 279-766 661-766 302 0 548 182 601 489h-190c-42-204-217-313-411-313-268 0-476 208-476 590 0 381 209 588 476 588 195 0 369-110 411-313h190c-52 303-296 489-601 489" id="aV"/><g id="L"><use transform="matrix(0.0087890625,0,0,0.0087890625,0,0)" xlink:href="#aV"/><use transform="matrix(0.0087890625,0,0,0.0087890625,13.1484375,0)" xlink:href="#ak"/><use transform="matrix(0.0087890625,0,0,0.0087890625,17.5078125,0)" xlink:href="#ax"/><use transform="matrix(0.0087890625,0,0,0.0087890625,21.8671875,0)" xlink:href="#av"/><use transform="matrix(0.0087890625,0,0,0.0087890625,32.150390625,0)" xlink:href="#aw"/><use transform="matrix(0.0087890625,0,0,0.0087890625,42.029296875,0)" xlink:href="#am"/></g><g id="M"><use transform="matrix(0.0087890625,0,0,0.0087890625,0,0)" xlink:href="#az"/><use transform="matrix(0.0087890625,0,0,0.0087890625,8.384765625,0)" xlink:href="#aS"/><use transform="matrix(0.0087890625,0,0,0.0087890625,19.705078125,0)" xlink:href="#an"/><use transform="matrix(0.0087890625,0,0,0.0087890625,29.84765625,0)" xlink:href="#aK"/><use transform="matrix(0.0087890625,0,0,0.0087890625,39.9638671875,0)" xlink:href="#ax"/><use transform="matrix(0.0087890625,0,0,0.0087890625,44.3232421875,0)" xlink:href="#an"/><use transform="matrix(0.0087890625,0,0,0.0087890625,54.4921875,0)" xlink:href="#aO"/><use transform="matrix(0.0087890625,0,0,0.0087890625,69.22265625,0)" xlink:href="#az"/></g><g id="N"><use transform="matrix(0.0087890625,0,0,0.0087890625,0,0)" xlink:href="#aN"/><use transform="matrix(0.0087890625,0,0,0.0087890625,11.548828125,0)" xlink:href="#ay"/><use transform="matrix(0.0087890625,0,0,0.0087890625,22.1923828125,0)" xlink:href="#aj"/><use transform="matrix(0.0087890625,0,0,0.0087890625,32.66015625,0)" xlink:href="#aO"/></g><g id="O"><use transform="matrix(0.0087890625,0,0,0.0087890625,0,0)" xlink:href="#am"/><use transform="matrix(0.0087890625,0,0,0.0087890625,9.5009765625,0)" xlink:href="#aB"/><use transform="matrix(0.0087890625,0,0,0.0087890625,20.14453125,0)" xlink:href="#aA"/><use transform="matrix(0.0087890625,0,0,0.0087890625,31.166015625,0)" xlink:href="#aG"/><use transform="matrix(0.0087890625,0,0,0.0087890625,46.93359375,0)" xlink:href="#ax"/><use transform="matrix(0.0087890625,0,0,0.0087890625,51.29296875,0)" xlink:href="#ar"/></g><g id="P"><use transform="matrix(0.0087890625,0,0,0.0087890625,0,0)" xlink:href="#ap"/><use transform="matrix(0.0087890625,0,0,0.0087890625,9.9140625,0)" xlink:href="#aj"/><use transform="matrix(0.0087890625,0,0,0.0087890625,20.70703125,0)" xlink:href="#ao"/><use transform="matrix(0.0087890625,0,0,0.0087890625,27.7646484375,0)" xlink:href="#aG"/></g><g id="Q"><use transform="matrix(0.0087890625,0,0,0.0087890625,0,0)" xlink:href="#aV"/><use transform="matrix(0.0087890625,0,0,0.0087890625,13.1484375,0)" xlink:href="#ak"/><use transform="matrix(0.0087890625,0,0,0.0087890625,17.5078125,0)" xlink:href="#ax"/><use transform="matrix(0.0087890625,0,0,0.0087890625,21.8671875,0)" xlink:href="#av"/><use transform="matrix(0.0087890625,0,0,0.0087890625,32.150390625,0)" xlink:href="#aw"/><use transform="matrix(0.0087890625,0,0,0.0087890625,42.029296875,0)" xlink:href="#am"/></g><path fill="#282c33" d="M180 0v-1490h908v168H370v486h669v168H370v500h727V0H180" id="aW"/><g id="R"><use transform="matrix(0.0087890625,0,0,0.0087890625,0,0)" xlink:href="#az"/><use transform="matrix(0.0087890625,0,0,0.0087890625,8.384765625,0)" xlink:href="#aW"/><use transform="matrix(0.0087890625,0,0,0.0087890625,19.2041015625,0)" xlink:href="#as"/><use transform="matrix(0.0087890625,0,0,0.0087890625,30.2255859375,0)" xlink:href="#ax"/><use transform="matrix(0.0087890625,0,0,0.0087890625,34.5849609375,0)" xlink:href="#ar"/><use transform="matrix(0.0087890625,0,0,0.0087890625,40.4736328125,0)" xlink:href="#az"/></g><g id="S"><use transform="matrix(0.0087890625,0,0,0.0087890625,0,0)" xlink:href="#az"/><use transform="matrix(0.0087890625,0,0,0.0087890625,8.384765625,0)" xlink:href="#aN"/><use transform="matrix(0.0087890625,0,0,0.0087890625,19.93359375,0)" xlink:href="#aB"/><use transform="matrix(0.0087890625,0,0,0.0087890625,30.5771484375,0)" xlink:href="#aG"/><use transform="matrix(0.0087890625,0,0,0.0087890625,46.3447265625,0)" xlink:href="#aA"/><use transform="matrix(0.0087890625,0,0,0.0087890625,57.3662109375,0)" xlink:href="#ax"/><use transform="matrix(0.0087890625,0,0,0.0087890625,61.7255859375,0)" xlink:href="#ar"/><use transform="matrix(0.0087890625,0,0,0.0087890625,67.6142578125,0)" xlink:href="#az"/></g><g id="T"><use transform="matrix(0.0087890625,0,0,0.0087890625,0,0)" xlink:href="#az"/><use transform="matrix(0.0087890625,0,0,0.0087890625,8.384765625,0)" xlink:href="#aM"/><use transform="matrix(0.0087890625,0,0,0.0087890625,21.9462890625,0)" xlink:href="#aj"/></g><g id="U"><use transform="matrix(0.0087890625,0,0,0.0087890625,0,0)" xlink:href="#ax"/><use transform="matrix(0.0087890625,0,0,0.0087890625,4.359375,0)" xlink:href="#ar"/><use transform="matrix(0.0087890625,0,0,0.0087890625,10.072265625,0)" xlink:href="#an"/><use transform="matrix(0.0087890625,0,0,0.0087890625,20.56640625,0)" xlink:href="#aG"/><use transform="matrix(0.0087890625,0,0,0.0087890625,36.333984375,0)" xlink:href="#am"/><use transform="matrix(0.0087890625,0,0,0.0087890625,45.8349609375,0)" xlink:href="#az"/></g><g id="V"><use transform="matrix(0.0087890625,0,0,0.0087890625,0,0)" xlink:href="#aW"/><use transform="matrix(0.0087890625,0,0,0.0087890625,10.8193359375,0)" xlink:href="#aK"/><use transform="matrix(0.0087890625,0,0,0.0087890625,20.583984375,0)" xlink:href="#an"/><use transform="matrix(0.0087890625,0,0,0.0087890625,31.078125,0)" xlink:href="#aq"/><use transform="matrix(0.0087890625,0,0,0.0087890625,41.712890625,0)" xlink:href="#ar"/></g><g id="W"><use transform="matrix(0.0087890625,0,0,0.0087890625,0,0)" xlink:href="#aV"/><use transform="matrix(0.0087890625,0,0,0.0087890625,13.1484375,0)" xlink:href="#au"/><use transform="matrix(0.0087890625,0,0,0.0087890625,23.255859375,0)" xlink:href="#ak"/><use transform="matrix(0.0087890625,0,0,0.0087890625,27.615234375,0)" xlink:href="#ak"/></g><g id="X"><use transform="matrix(0.0087890625,0,0,0.0087890625,0,0)" xlink:href="#az"/><use transform="matrix(0.0087890625,0,0,0.0087890625,8.384765625,0)" xlink:href="#aK"/><use transform="matrix(0.0087890625,0,0,0.0087890625,18.4130859375,0)" xlink:href="#au"/><use transform="matrix(0.0087890625,0,0,0.0087890625,28.5205078125,0)" xlink:href="#ak"/><use transform="matrix(0.0087890625,0,0,0.0087890625,32.8798828125,0)" xlink:href="#ax"/><use transform="matrix(0.0087890625,0,0,0.0087890625,37.2392578125,0)" xlink:href="#as"/><use transform="matrix(0.0087890625,0,0,0.0087890625,48.2607421875,0)" xlink:href="#au"/><use transform="matrix(0.0087890625,0,0,0.0087890625,58.3681640625,0)" xlink:href="#ar"/><use transform="matrix(0.0087890625,0,0,0.0087890625,64.0810546875,0)" xlink:href="#an"/></g><g id="Y"><use transform="matrix(0.0087890625,0,0,0.0087890625,0,0)" xlink:href="#aB"/><use transform="matrix(0.0087890625,0,0,0.0087890625,10.6435546875,0)" xlink:href="#am"/><use transform="matrix(0.0087890625,0,0,0.0087890625,20.14453125,0)" xlink:href="#an"/><use transform="matrix(0.0087890625,0,0,0.0087890625,30.638671875,0)" xlink:href="#ao"/><use transform="matrix(0.0087890625,0,0,0.0087890625,37.4150390625,0)" xlink:href="#az"/></g><g id="Z"><use transform="matrix(0.0087890625,0,0,0.0087890625,0,0)" xlink:href="#aH"/><use transform="matrix(0.0087890625,0,0,0.0087890625,11.5048828125,0)" xlink:href="#au"/><use transform="matrix(0.0087890625,0,0,0.0087890625,21.6123046875,0)" xlink:href="#ak"/><use transform="matrix(0.0087890625,0,0,0.0087890625,25.9716796875,0)" xlink:href="#ax"/><use transform="matrix(0.0087890625,0,0,0.0087890625,30.3310546875,0)" xlink:href="#as"/><use transform="matrix(0.0087890625,0,0,0.0087890625,41.3525390625,0)" xlink:href="#au"/><use transform="matrix(0.0087890625,0,0,0.0087890625,51.4599609375,0)" xlink:href="#ar"/><use transform="matrix(0.0087890625,0,0,0.0087890625,57.1728515625,0)" xlink:href="#an"/></g><g id="aa"><use transform="matrix(0.0087890625,0,0,0.0087890625,0,0)" xlink:href="#aB"/><use transform="matrix(0.0087890625,0,0,0.0087890625,10.6435546875,0)" xlink:href="#am"/><use transform="matrix(0.0087890625,0,0,0.0087890625,20.14453125,0)" xlink:href="#an"/><use transform="matrix(0.0087890625,0,0,0.0087890625,30.638671875,0)" xlink:href="#ao"/></g><g id="ab"><use transform="matrix(0.0087890625,0,0,0.0087890625,0,0)" xlink:href="#al"/><use transform="matrix(0.0087890625,0,0,0.0087890625,13.39453125,0)" xlink:href="#am"/><use transform="matrix(0.0087890625,0,0,0.0087890625,22.8955078125,0)" xlink:href="#an"/><use transform="matrix(0.0087890625,0,0,0.0087890625,33.3896484375,0)" xlink:href="#ao"/></g><g id="ac"><use transform="matrix(0.0087890625,0,0,0.0087890625,0,0)" xlink:href="#ay"/><use transform="matrix(0.0087890625,0,0,0.0087890625,10.6435546875,0)" xlink:href="#au"/><use transform="matrix(0.0087890625,0,0,0.0087890625,20.7509765625,0)" xlink:href="#am"/></g><g id="ad"><use transform="matrix(0.0087890625,0,0,0.0087890625,0,0)" xlink:href="#ax"/><use transform="matrix(0.0087890625,0,0,0.0087890625,4.359375,0)" xlink:href="#ar"/><use transform="matrix(0.0087890625,0,0,0.0087890625,10.072265625,0)" xlink:href="#an"/><use transform="matrix(0.0087890625,0,0,0.0087890625,20.56640625,0)" xlink:href="#aG"/><use transform="matrix(0.0087890625,0,0,0.0087890625,36.333984375,0)" xlink:href="#am"/><use transform="matrix(0.0087890625,0,0,0.0087890625,45.8349609375,0)" xlink:href="#aL"/></g><g id="ae"><use transform="matrix(0.0087890625,0,0,0.0087890625,0,0)" xlink:href="#aM"/><use transform="matrix(0.0087890625,0,0,0.0087890625,13.5615234375,0)" xlink:href="#aj"/></g><path fill="#282c33" d="M600 0v-610L52-1490h220l295 481c50 82 90 150 130 243 40-96 80-164 128-243l294-481h219L790-610V0H600" id="aX"/><g id="af"><use transform="matrix(0.0087890625,0,0,0.0087890625,0,0)" xlink:href="#aX"/><use transform="matrix(0.0087890625,0,0,0.0087890625,10.8369140625,0)" xlink:href="#an"/><use transform="matrix(0.0087890625,0,0,0.0087890625,21.3310546875,0)" xlink:href="#am"/></g><g id="ag"><use transform="matrix(0.0087890625,0,0,0.0087890625,0,0)" xlink:href="#aq"/><use transform="matrix(0.0087890625,0,0,0.0087890625,10.634765625,0)" xlink:href="#an"/><use transform="matrix(0.0087890625,0,0,0.0087890625,20.8037109375,0)" xlink:href="#aO"/></g><g id="ah"><use transform="matrix(0.0087890625,0,0,0.0087890625,0,0)" xlink:href="#ak"/><use transform="matrix(0.0087890625,0,0,0.0087890625,4.359375,0)" xlink:href="#aj"/><use transform="matrix(0.0087890625,0,0,0.0087890625,15.15234375,0)" xlink:href="#ar"/></g></defs></g></svg>